<svg xmlns="http://www.w3.org/2000/svg" fill="none" viewBox="0 0 1024 1024" height="1024" width="1024">
<path fill="#F9FAFE" d="M512 1024C794.77 1024 1024 891.984 1024 729.135C1024 566.285 794.77 434.269 512 434.269C229.23 434.269 0 566.285 0 729.135C0 891.984 229.23 1024 512 1024Z"></path>
<path fill="#D3D3D3" d="M528.191 594.366L238.662 761.172C230.51 765.859 216.39 765.282 206.88 759.861L104.053 700.652C94.6317 695.231 93.6072 687.033 101.825 682.345L391.355 515.539C399.507 510.851 413.627 511.451 423.137 516.85L525.942 576.059C535.318 581.48 536.41 589.678 528.191 594.366Z"></path>
<path fill="#D3D3D3" d="M687.366 816.292C799.396 816.292 890.215 763.991 890.215 699.475C890.215 634.958 799.396 582.657 687.366 582.657C575.335 582.657 484.517 634.958 484.517 699.475C484.517 763.991 575.335 816.292 687.366 816.292Z"></path>
<path fill="#D3D3D3" d="M500.352 873.835C553.341 873.835 596.298 849.097 596.298 818.581C596.298 788.065 553.341 763.327 500.352 763.327C447.363 763.327 404.406 788.065 404.406 818.581C404.406 849.097 447.363 873.835 500.352 873.835Z"></path>
<path fill="#D3D3D3" d="M914.602 734.778C937.052 747.708 937.052 768.681 914.602 781.611C892.153 794.542 855.716 794.542 833.267 781.611C810.817 768.681 810.817 747.708 833.267 734.778C855.716 721.847 892.13 721.914 914.602 734.778Z"></path>
<path fill="#9E9E9E" d="M875.761 627.713C862.888 710.561 779.214 798.274 651.041 773.791C649.772 773.569 648.502 773.324 647.255 773.058C644.605 772.502 641.932 771.925 639.26 771.258C504.428 738.932 494.94 651.819 500.842 613.894C506.744 575.97 541.866 545.466 562.623 533.38C583.38 521.293 609.104 507.608 632.756 469.483C654.204 434.824 688.636 414.074 739.971 417.562L744.537 417.917C748.212 418.273 752.02 418.761 755.896 419.339C755.896 419.339 905.248 438.024 875.761 627.713Z"></path>
<path fill="white" d="M875.761 627.713C862.888 710.561 779.214 798.274 651.041 773.791C649.772 773.569 648.502 773.324 647.255 773.058C644.605 772.502 641.932 771.925 639.26 771.258C504.428 738.932 494.94 651.819 500.842 613.894C506.744 575.97 541.866 545.466 562.623 533.38C583.38 521.293 609.104 507.608 632.756 469.483C654.204 434.824 688.636 414.074 739.971 417.562L744.537 417.917C748.212 418.273 752.02 418.761 755.896 419.339C755.896 419.339 905.248 438.024 875.761 627.713Z" opacity="0.6"></path>
<path fill="#9E9E9E" d="M844.068 622.826C831.752 702.141 759.904 786.743 651.041 773.902C649.772 773.68 648.502 773.435 647.255 773.169C753.824 783.544 824.046 700.03 836.207 621.715C860.572 465.04 771.619 426.382 739.971 417.673C737.054 416.851 734.626 416.318 732.8 415.94L737.031 416.54C739.559 416.899 742.064 417.396 744.537 418.028C772.733 424.782 869.347 460.307 844.068 622.826Z"></path>
<path fill="white" d="M844.068 622.826C831.752 702.141 759.904 786.743 651.041 773.902C649.772 773.68 648.502 773.435 647.255 773.169C753.824 783.544 824.046 700.03 836.207 621.715C860.572 465.04 771.619 426.382 739.971 417.673C737.054 416.851 734.626 416.318 732.8 415.94L737.031 416.54C739.559 416.899 742.064 417.396 744.537 418.028C772.733 424.782 869.347 460.307 844.068 622.826Z" opacity="0.4"></path>
<path fill="#9E9E9E" d="M769.637 618.027C769.637 618.027 841.262 452.731 725.228 452.731C725.228 452.731 662.556 436.757 635.34 513.673C608.124 590.589 530.664 570.615 530.664 631.735C530.664 668.726 546.588 710.828 559.817 738.244C570.864 745.621 582.614 751.895 594.895 756.973L595.407 756.617C595.407 756.617 600.039 718.359 627.99 699.652C655.941 680.946 718.39 662.594 738.925 647.153C758.323 632.601 798.323 637.533 804.782 647.642C801.441 640.644 788.88 615.961 769.637 618.027Z"></path>
<path fill="white" d="M769.637 618.027C769.637 618.027 841.262 452.731 725.228 452.731C725.228 452.731 662.556 436.757 635.34 513.673C608.124 590.589 530.664 570.615 530.664 631.735C530.664 668.726 546.588 710.828 559.817 738.244C570.864 745.621 582.614 751.895 594.895 756.973L595.407 756.617C595.407 756.617 600.039 718.359 627.99 699.652C655.941 680.946 718.39 662.594 738.925 647.153C758.323 632.601 798.323 637.533 804.782 647.642C801.441 640.644 788.88 615.961 769.637 618.027Z" opacity="0.4"></path>
<path fill="#9E9E9E" d="M804.692 647.642C805.205 648.797 805.494 649.486 805.494 649.486C805.336 648.83 805.065 648.206 804.692 647.642Z"></path>
<path fill="#FFE6E5" d="M531.221 658.106L536.744 742.798C536.744 742.798 571.554 746.553 567.389 719.515C567.389 719.515 565.652 716.671 566.053 710.006C566.454 703.341 574.271 668.593 574.561 657.751L531.221 658.106Z"></path>
<path fill="#D3D3D3" d="M535.741 727.557L540.084 730.779L571.933 664.194L567.434 657.818L563.091 657.862L555.073 664.194L534.45 707.806L535.741 727.557Z"></path>
<path fill="#9E9E9E" d="M534.628 743.109C534.628 743.109 527.434 729.179 537.746 725.535C548.058 721.892 554.561 725.535 555.251 729.379C555.942 733.222 556.387 738.843 556.387 738.843C561.894 733.63 565.723 726.903 567.389 719.515C567.389 719.515 583.38 733.556 582.089 740.843C580.797 748.13 568.547 763.727 567.033 768.614C565.519 773.502 561.799 803.695 546.744 808.05C531.688 812.404 510.263 812.493 515.564 795.386C517.368 789.476 526.699 782.544 528.815 776.724C530.931 770.903 534.628 743.109 534.628 743.109Z"></path>
<path fill="#F9FAFE" d="M561.287 790.409C558.695 784.47 554.167 779.58 548.439 776.531C542.71 773.482 536.116 772.454 529.728 773.613C529.416 774.946 529.127 776.013 528.882 776.724C526.766 782.544 517.434 789.476 515.63 795.386C510.374 812.582 531.8 812.404 546.811 808.05C553.782 806.028 558.325 798.452 561.354 790.409H561.287Z"></path>
<path fill="black" d="M580.307 734.4C580.525 735.234 580.571 736.103 580.44 736.955C578.993 744.553 565.942 760.683 564.294 765.837C562.645 770.991 558.303 802.429 542.49 806.783C535.232 808.906 527.619 809.548 520.107 808.672C526.61 811.782 537.79 810.671 546.833 808.094C561.888 803.651 565.63 773.569 567.122 768.659C568.614 763.749 580.908 748.175 582.178 740.887C582.3 738.577 581.641 736.292 580.307 734.4Z"></path>
<path fill="#F9FAFE" d="M552.891 747.353C552.614 747.35 552.35 747.238 552.156 747.041C545.051 739.976 535.43 743.887 535.029 744.042C534.778 744.148 534.495 744.15 534.242 744.048C533.989 743.946 533.788 743.748 533.681 743.498C533.575 743.247 533.573 742.965 533.675 742.713C533.777 742.461 533.976 742.26 534.227 742.154C534.338 742.154 545.496 737.533 553.626 745.575C553.77 745.721 553.868 745.906 553.907 746.107C553.947 746.309 553.926 746.517 553.848 746.707C553.77 746.896 553.637 747.058 553.467 747.173C553.297 747.288 553.096 747.351 552.891 747.353Z"></path>
<path fill="#F9FAFE" d="M552 755.24C551.868 755.241 551.737 755.216 551.615 755.166C551.492 755.117 551.381 755.043 551.287 754.951C544.16 747.886 534.539 751.774 534.138 751.951C534.013 752.006 533.877 752.035 533.741 752.036C533.604 752.038 533.468 752.012 533.341 751.96C533.215 751.908 533.1 751.831 533.003 751.735C532.907 751.638 532.831 751.523 532.78 751.396C532.676 751.142 532.676 750.858 532.78 750.605C532.884 750.351 533.084 750.149 533.336 750.041C533.336 750.041 544.628 745.42 552.735 753.484C552.927 753.676 553.034 753.936 553.034 754.207C553.034 754.477 552.927 754.737 552.735 754.929C552.642 755.03 552.528 755.11 552.401 755.164C552.275 755.218 552.138 755.244 552 755.24Z"></path>
<path fill="#F9FAFE" d="M550.842 763.016C550.706 763.018 550.571 762.994 550.445 762.945C550.319 762.895 550.204 762.821 550.107 762.727C542.98 755.64 533.381 759.55 532.98 759.727C532.731 759.809 532.461 759.794 532.223 759.687C531.985 759.58 531.796 759.387 531.692 759.148C531.589 758.908 531.579 758.639 531.665 758.393C531.751 758.146 531.926 757.941 532.156 757.817C532.267 757.817 543.447 753.196 551.554 761.26C551.655 761.352 551.735 761.464 551.79 761.588C551.845 761.712 551.874 761.847 551.874 761.983C551.874 762.118 551.845 762.253 551.79 762.377C551.735 762.501 551.655 762.613 551.554 762.705C551.464 762.803 551.354 762.882 551.231 762.936C551.108 762.989 550.976 763.016 550.842 763.016Z"></path>
<path fill="#F9FAFE" d="M549.216 770.903C548.939 770.9 548.675 770.788 548.481 770.592C541.354 763.527 531.755 767.437 531.354 767.592C531.23 767.645 531.096 767.672 530.961 767.673C530.826 767.675 530.692 767.649 530.567 767.599C530.442 767.548 530.328 767.473 530.232 767.379C530.136 767.284 530.059 767.172 530.007 767.048C529.954 766.924 529.926 766.791 529.925 766.656C529.924 766.522 529.95 766.388 530 766.263C530.051 766.138 530.126 766.025 530.221 765.929C530.315 765.833 530.428 765.756 530.552 765.704C530.664 765.704 541.822 761.06 549.951 769.125C550.095 769.271 550.193 769.456 550.233 769.658C550.272 769.859 550.251 770.067 550.173 770.257C550.095 770.446 549.962 770.609 549.792 770.723C549.622 770.838 549.421 770.901 549.216 770.903Z"></path>
<path fill="#9E9E9E" d="M681.509 587.567L647.879 604.941L586.966 636.467C584.248 637.881 581.839 639.822 579.881 642.176C577.923 644.53 576.455 647.249 575.563 650.175C574.925 652.249 574.588 654.404 574.561 656.573V657.751C573.201 658.689 571.78 659.535 570.307 660.284C565.577 662.682 560.377 664.017 555.073 664.194C546.718 664.343 538.477 662.24 531.22 658.106C531.22 658.106 530.998 648.064 530.575 631.735C530.151 615.405 544.182 607.74 557.033 598.187C569.884 588.633 638.859 559.44 638.859 559.44L681.509 587.567Z"></path>
<path fill="black" d="M638.859 599.053L676.163 587.856L681.509 593.099L641.932 608.029L638.859 599.053Z"></path>
<path fill="black" d="M650.997 607.718L575.563 650.175L574.739 650.642L570.284 660.284C565.554 662.682 560.354 664.017 555.051 664.194L563.313 646.865C565.315 642.665 568.555 639.177 572.601 636.867L638.836 599.098C638.836 599.098 638.346 587.989 640.573 583.19C640.573 583.19 640.952 597.143 647.856 604.985C648.769 606.039 649.826 606.959 650.997 607.718Z"></path>
<path fill="#FFE6E5" d="M549.773 686.367L501.555 787.699C501.555 787.699 497.768 808.205 511.131 808.205C524.494 808.205 526.721 801.385 526.721 801.385C526.721 801.385 527.991 792.787 539.394 776.946C550.797 761.105 586.031 730.29 593.603 708.295L549.773 686.367Z"></path>
<path fill="#9E9E9E" d="M746.096 600.608C746.096 600.608 739.415 629.757 726.876 639.844C714.337 649.93 704.07 656.751 661.954 665.638C634.248 671.459 616.186 676.347 607.077 678.968C605.003 679.569 603.134 680.725 601.673 682.311C600.213 683.898 599.216 685.854 598.792 687.966C597.45 694.719 595.74 701.394 593.67 707.962C593.67 707.962 566.075 708.872 549.884 686.078L565.897 655.507C570.042 647.562 576.239 640.866 583.848 636.111C602.565 624.23 621.96 613.444 641.932 603.808C674.649 588.633 679.103 585.856 679.103 585.856L746.096 600.608Z"></path>
<path fill="#FFE6E5" d="M639.438 488.345L608.258 536.956L631.888 559.44L667.099 505.275C667.099 505.275 656.676 487.168 639.438 488.345Z"></path>
<path fill="#9E9E9E" d="M639.438 488.345C639.438 488.345 658.146 493.211 662.533 505.275L700.195 459.863L694.137 437.802C688.69 436.92 683.107 437.482 677.947 439.432C672.788 441.381 668.232 444.65 664.738 448.91C656.542 458.575 639.438 488.345 639.438 488.345Z"></path>
<path fill="black" d="M639.438 488.345C639.438 488.345 658.146 493.211 662.533 505.275L700.195 459.863L694.137 437.802C688.69 436.92 683.107 437.482 677.947 439.432C672.788 441.381 668.232 444.65 664.738 448.91C656.542 458.575 639.438 488.345 639.438 488.345Z" opacity="0.2"></path>
<path fill="black" d="M702.956 330.56C702.956 330.56 694.048 323.228 683.691 334.559C673.335 345.889 682.867 378.993 667.745 377.215C667.745 377.215 677.678 387.835 687.589 380.37C687.945 380.101 688.355 379.912 688.791 379.815C692.689 379.059 696.275 386.058 697.834 388.546C702.154 395.389 705.896 402.543 710.217 409.364C714.537 416.184 719.972 425.693 727.054 429.959C735.45 435.047 748.078 434.269 756.675 430.314C770.617 423.916 780.327 409.119 785.183 395.056C787.41 388.835 789.325 381.437 788.501 374.86C787.187 364.463 779.459 360.797 779.414 361.286C779.414 361.286 782.733 334.892 748.234 328.382C716.141 322.295 702.956 330.56 702.956 330.56Z"></path>
<path fill="#FFE6E5" d="M748.724 415.185L745.094 447.222L755.584 451.665C755.584 451.665 704.359 477.348 692.533 473.438C680.707 469.528 705.117 438.601 705.117 438.601L711.041 439.334L711.82 424.493L748.724 415.185Z"></path>
<path fill="#FF9F99" d="M739.236 421.294L725.339 421.094L711.82 424.516L711.241 435.158C733.268 430.225 739.236 421.294 739.236 421.294Z"></path>
<path fill="#FFE6E5" d="M702.889 343.512C702.889 343.512 688.146 350.177 684.404 381.726C680.662 413.274 685.985 427.87 705.851 427.87C721.82 427.87 740.662 425.649 748.724 415.185C750.684 412.607 754.693 350.577 737.856 341.868C721.018 333.159 702.889 343.512 702.889 343.512Z"></path>
<path fill="black" d="M702.889 340.735C702.889 340.735 702.199 374.416 740.573 384.88C740.573 384.88 737.789 402.654 748.59 402.654H759.125V371.55C759.125 362.169 755.389 353.173 748.74 346.54C742.091 339.907 733.072 336.18 723.669 336.18H707.633C706.389 336.186 705.197 336.682 704.317 337.56C703.437 338.438 702.94 339.627 702.934 340.868L702.889 340.735Z"></path>
<path fill="#FF9F99" d="M705.406 380.37V399.566L694.137 396.122L705.406 380.37Z"></path>
<path fill="black" d="M717.054 389.835C718.665 389.835 719.972 388.532 719.972 386.924C719.972 385.317 718.665 384.014 717.054 384.014C715.443 384.014 714.136 385.317 714.136 386.924C714.136 388.532 715.443 389.835 717.054 389.835Z"></path>
<path fill="black" d="M697.9 381.992C697.905 382.574 697.736 383.144 697.414 383.63C697.093 384.115 696.634 384.495 696.096 384.719C695.558 384.944 694.965 385.004 694.393 384.892C693.82 384.779 693.294 384.499 692.882 384.088C692.469 383.677 692.189 383.152 692.076 382.581C691.964 382.01 692.024 381.419 692.249 380.882C692.474 380.345 692.854 379.887 693.341 379.567C693.828 379.246 694.4 379.077 694.983 379.082C695.757 379.082 696.499 379.388 697.046 379.934C697.593 380.48 697.9 381.22 697.9 381.992Z"></path>
<path fill="black" d="M691.33 371.15L698.613 369.062C698.613 369.062 696.854 365.929 694.048 366.84C691.241 367.751 691.33 371.15 691.33 371.15Z"></path>
<path fill="#FFE6E5" d="M748.301 399.766C748.174 396.589 748.76 393.424 750.016 390.501C750.631 388.681 751.766 387.08 753.282 385.896C754.797 384.712 756.627 383.996 758.546 383.836C768.368 383.57 769.682 393.012 769.57 396.367C769.214 405.254 762.042 414.74 748.724 415.096L748.301 399.766Z"></path>
<path fill="#0073EF" d="M705.116 438.624L694.137 437.802C694.137 437.802 653.046 468.306 655.674 489.479C657.233 501.92 661.041 508.896 663.535 512.229C664.247 513.216 664.74 514.342 664.982 515.533C665.224 516.724 665.209 517.953 664.939 519.138C663.446 525.804 660.172 538.245 655.562 544.088C650.634 549.858 645.026 555.012 638.859 559.44C638.859 559.44 651.286 582.124 675.206 593.899C699.125 605.674 737.677 606.74 746.096 600.564L757.232 536.957L762.755 454.953L753.535 450.732C753.535 450.732 709.415 471.416 695.629 470.216C688.546 469.639 705.116 438.624 705.116 438.624Z"></path>
<path fill="black" d="M687.188 517.05C693.366 521.581 700.882 523.926 708.546 523.715C716.393 523.872 724.022 521.135 729.972 516.028C729.972 516.028 724.114 526.937 708.235 526.937C692.355 526.937 687.188 517.05 687.188 517.05Z" opacity="0.2"></path>
<path fill="#FFE6E5" d="M738.212 528.958L731.642 557.707C718.126 554.672 704.453 552.38 690.685 550.842C665.963 547.976 661.019 546.399 661.019 546.399L662.556 573.193C662.556 573.193 692.511 585.19 719.949 589.144C747.388 593.099 754.671 592.077 761.731 569.816C768.791 547.554 771.352 538.712 771.352 538.712L738.212 528.958Z"></path>
<path fill="#9E9E9E" d="M762.666 454.998C762.666 454.998 742.243 469.639 744.515 502.187C744.515 502.187 738.88 526.626 738.212 528.847C738.212 528.847 750.194 538.223 771.352 538.534L784.893 489.79C786.378 484.547 786.165 478.971 784.286 473.856C782.406 468.742 778.955 464.35 774.425 461.307C770.689 458.88 766.756 456.77 762.666 454.998Z"></path>
<path fill="black" d="M762.666 454.998C762.666 454.998 742.243 469.639 744.515 502.187C744.515 502.187 738.88 526.626 738.212 528.847C738.212 528.847 750.194 538.223 771.352 538.534L784.893 489.79C786.378 484.547 786.165 478.971 784.286 473.856C782.406 468.742 778.955 464.35 774.425 461.307C770.689 458.88 766.756 456.77 762.666 454.998Z" opacity="0.2"></path>
<path fill="black" d="M656.52 582.924L655.897 580.058L643.558 522.649C643.558 522.649 644.471 520.805 645.117 519.449C645.471 519.672 645.793 519.941 646.075 520.249C646.721 520.964 647.18 521.826 647.411 522.76L659.994 577.125L660.195 577.925C660.974 581.302 656.52 582.924 656.52 582.924Z"></path>
<path fill="#9E9E9E" d="M646.075 520.249L643.558 522.649L613.425 512.584L610.93 511.762L612.289 510.451C612.502 510.222 612.75 510.027 613.024 509.874C613.495 509.575 614.022 509.374 614.573 509.282C615.124 509.191 615.688 509.21 616.231 509.341L643.803 518.761C644.671 519.064 645.451 519.575 646.075 520.249Z"></path>
<path fill="black" d="M610.507 513.251L624.226 567.949C624.511 569.076 625.065 570.117 625.841 570.984C626.616 571.85 627.591 572.517 628.681 572.926L654.783 582.99C655.165 583.153 655.586 583.205 655.997 583.142C656.408 583.078 656.793 582.901 657.108 582.63C657.423 582.36 657.656 582.007 657.78 581.611C657.905 581.215 657.916 580.792 657.812 580.391L645.006 525.226C644.799 524.304 644.358 523.45 643.727 522.747C643.095 522.043 642.293 521.512 641.398 521.205L612.601 511.385C612.33 511.282 612.036 511.255 611.751 511.308C611.466 511.361 611.201 511.49 610.985 511.683C610.769 511.875 610.61 512.124 610.526 512.4C610.442 512.677 610.435 512.971 610.507 513.251Z"></path>
<path fill="#9E9E9E" d="M526.677 801.34C524.461 802.684 521.978 803.53 519.401 803.818C516.823 804.106 514.214 803.829 511.755 803.006C511.755 803.006 515.385 793.697 508.526 789.676C501.666 785.655 494.94 785.655 493.181 791.409L491.399 797.163C491.399 797.163 474.161 810.649 467.68 814.781C461.199 818.914 455.007 822.024 450.174 825.135C445.341 828.245 432.914 837.265 443.671 848.618C454.428 859.971 486.41 854.128 494.517 841.175C502.624 828.223 526.009 834.51 526.009 818.825C526.009 803.14 526.677 801.34 526.677 801.34Z"></path>
<path fill="#F9FAFE" d="M464.695 816.603C459.328 819.847 454.25 822.469 450.174 825.09C445.364 828.178 432.914 837.221 443.671 848.574C451.934 857.327 472.78 855.861 485.653 848.818C486.076 822.713 470.13 818.136 464.695 816.603Z"></path>
<path fill="black" d="M495.14 837.154C486.588 850.795 452.825 856.972 441.577 844.997C441.065 844.464 440.62 843.93 440.197 843.397C441.014 845.327 442.194 847.084 443.671 848.574C454.428 859.949 486.41 854.084 494.517 841.131C502.245 828.823 523.737 833.955 525.831 820.936C519.372 828.378 502.045 826.157 495.14 837.154Z"></path>
<path fill="#F9FAFE" d="M504.539 811.204C504.297 811.204 504.062 811.119 503.875 810.965C503.689 810.811 503.561 810.598 503.515 810.36C501.733 800.451 491.288 798.141 491.176 798.119C490.909 798.06 490.675 797.899 490.526 797.671C490.376 797.442 490.321 797.164 490.374 796.897C490.433 796.63 490.594 796.397 490.823 796.248C491.052 796.098 491.331 796.044 491.599 796.097C491.733 796.097 503.515 798.741 505.564 809.983C505.609 810.253 505.546 810.531 505.387 810.756C505.229 810.98 504.988 811.133 504.717 811.182L504.539 811.204Z"></path>
<path fill="#F9FAFE" d="M498.793 815.715C498.551 815.714 498.316 815.629 498.129 815.475C497.942 815.321 497.815 815.108 497.769 814.87C495.987 804.984 485.541 802.673 485.43 802.651C485.163 802.592 484.929 802.431 484.779 802.203C484.63 801.975 484.575 801.697 484.628 801.429C484.655 801.296 484.708 801.169 484.784 801.056C484.86 800.943 484.958 800.847 485.072 800.772C485.186 800.698 485.314 800.647 485.448 800.622C485.582 800.598 485.72 800.6 485.853 800.629C485.987 800.629 497.769 803.251 499.818 814.493C499.843 814.627 499.841 814.765 499.812 814.899C499.783 815.033 499.728 815.159 499.649 815.271C499.57 815.383 499.469 815.478 499.353 815.55C499.236 815.623 499.107 815.671 498.971 815.692L498.793 815.715Z"></path>
<path fill="#F9FAFE" d="M492.223 820.802C491.981 820.802 491.746 820.717 491.559 820.563C491.372 820.409 491.245 820.195 491.199 819.958C489.417 810.094 479.306 807.828 478.86 807.739C478.591 807.675 478.357 807.51 478.208 807.278C478.058 807.046 478.005 806.765 478.058 806.495C478.087 806.363 478.142 806.239 478.219 806.128C478.297 806.018 478.395 805.924 478.509 805.852C478.623 805.78 478.75 805.731 478.883 805.707C479.015 805.684 479.152 805.687 479.283 805.717C479.417 805.717 491.199 808.339 493.248 819.58C493.273 819.715 493.271 819.853 493.242 819.987C493.213 820.12 493.158 820.247 493.079 820.359C493 820.471 492.899 820.566 492.783 820.638C492.666 820.71 492.537 820.759 492.401 820.78L492.223 820.802Z"></path>
<path fill="#F9FAFE" d="M486.611 825.024C486.368 825.021 486.134 824.933 485.95 824.774C485.766 824.615 485.645 824.397 485.608 824.157C483.827 814.315 473.693 812.026 473.27 811.938C473.003 811.879 472.769 811.718 472.619 811.49C472.469 811.261 472.415 810.984 472.468 810.716C472.495 810.582 472.548 810.455 472.624 810.343C472.7 810.23 472.798 810.133 472.912 810.059C473.026 809.985 473.154 809.933 473.288 809.909C473.422 809.884 473.56 809.887 473.693 809.916C473.693 809.916 485.608 812.56 487.635 823.802C487.661 823.934 487.66 824.071 487.632 824.203C487.605 824.336 487.551 824.462 487.474 824.573C487.398 824.685 487.3 824.78 487.186 824.854C487.072 824.927 486.944 824.977 486.811 825.001L486.611 825.024Z"></path>
<path fill="#FF9F99" d="M702.889 404.209C706.832 404.469 710.749 403.414 714.025 401.21C714.025 401.21 714.782 407.098 709.86 408.208C704.938 409.319 702.889 404.209 702.889 404.209Z"></path>
<path fill="#FFE6E5" d="M614.516 539.356C613.981 538.556 614.226 537.467 613.981 536.179C613.466 533.891 612.586 531.701 611.376 529.692C610.906 528.565 610.136 527.589 609.148 526.87C608.634 526.526 608.013 526.379 607.399 526.456C606.785 526.534 606.219 526.831 605.808 527.292C605.474 527.88 605.312 528.55 605.34 529.225C605.094 532.298 605.357 535.391 606.119 538.378C606.832 540.6 605.429 543.511 605.117 545.688C604.605 549.087 605.941 550.509 606.743 553.886C608.592 561.529 614.805 564.994 622.333 563.595C637.923 560.751 637.344 539.911 635.251 537.045C633.157 534.179 629.594 532.469 623.558 537.467C621.598 539.089 618.347 541.178 615.607 540.156C615.165 540.017 614.781 539.736 614.516 539.356Z"></path>
<path fill="#FFE6E5" d="M667.01 548.487C663.313 541.842 657.285 536.794 650.084 534.313L652.311 543.555C652.311 543.555 641.464 545.643 634.605 544.421C627.745 543.199 615.162 535.268 617.166 544.288C619.171 553.308 621.197 559.262 626.364 563.35C631.822 567.966 638.523 570.872 645.629 571.704C653.046 572.282 662.645 573.215 662.645 573.215L667.01 548.487Z"></path>
<path fill="#FF9F99" d="M626.275 563.861C626.162 563.858 626.053 563.819 625.964 563.75C620.752 559.618 618.636 553.775 616.565 544.399C616.119 542.377 616.342 541 617.255 540.222C619.126 538.578 623.358 540.222 627.857 541.8C630.021 542.715 632.256 543.458 634.538 544.021C635.534 544.181 636.538 544.284 637.545 544.333C637.681 544.333 637.811 544.386 637.907 544.482C638.003 544.578 638.057 544.708 638.057 544.843C638.057 544.979 638.003 545.109 637.907 545.205C637.811 545.301 637.681 545.355 637.545 545.355C636.491 545.321 635.441 545.21 634.404 545.021C632.038 544.472 629.722 543.729 627.478 542.8C623.647 541.378 619.327 539.778 617.901 541.022C617.322 541.533 617.211 542.6 617.545 544.199C619.572 553.33 621.598 559.04 626.565 562.95C626.659 563.05 626.711 563.181 626.711 563.317C626.711 563.453 626.659 563.585 626.565 563.684C626.494 563.777 626.391 563.84 626.275 563.861Z"></path>
<path fill="black" d="M778.323 361.997C782.871 359.415 788.052 358.151 793.281 358.347C798.51 358.543 803.581 360.192 807.922 363.108C812.195 366.125 815.739 370.057 818.293 374.616C820.848 379.175 822.349 384.245 822.688 389.457C824.314 410.985 816.162 417.251 807.944 443.045C805.249 451.487 807.944 461.463 829.481 471.394C829.481 471.394 773.579 482.191 783.156 426.16C790.105 385.502 775.227 387.013 775.227 387.013L778.323 361.997Z"></path>
<path fill="#9E9E9E" d="M884.179 697.653C884.179 697.653 856.184 670.37 872.13 624.67C881.039 599.053 910.66 580.235 927.52 578.48C921.927 585.11 917.472 592.617 914.335 600.697L893.11 614.783L912.62 608.696L908.477 625.358C908.477 625.358 890.326 636.289 887.631 638.689L907.186 633.579C907.186 633.579 905.694 680.701 884.179 697.653Z"></path>
<path fill="black" d="M884.179 697.653C884.179 697.653 856.184 670.37 872.13 624.67C881.039 599.053 910.66 580.235 927.52 578.48C921.927 585.11 917.472 592.617 914.335 600.697L893.11 614.783L912.62 608.696L908.477 625.358C908.477 625.358 890.326 636.289 887.631 638.689L907.186 633.579C907.186 633.579 905.694 680.701 884.179 697.653Z" opacity="0.4"></path>
<path fill="white" d="M884.179 697.653C884.179 697.653 869.681 640.555 891.15 607.274C891.15 607.274 866.028 636.645 884.179 697.653Z"></path>
<path fill="black" d="M916.25 705.384L881.974 704.962H881.618L847.364 705.384C847.364 705.384 846.986 747.486 859.97 764.637C863.578 769.081 871.997 772.391 881.796 772.391C891.596 772.391 900.059 769.17 903.645 764.615C916.629 747.464 916.25 705.384 916.25 705.384Z"></path>
<path fill="#9E9E9E" d="M881.796 723.825C900.812 723.825 916.228 715.569 916.228 705.384C916.228 695.2 900.812 686.944 881.796 686.944C862.78 686.944 847.365 695.2 847.365 705.384C847.365 715.569 862.78 723.825 881.796 723.825Z"></path>
<path fill="black" d="M881.796 700.497C893.645 700.497 903.689 704.274 907.208 709.539C908.079 708.325 908.561 706.877 908.589 705.384C908.589 698.097 896.607 692.188 881.863 692.188C867.119 692.188 855.137 698.097 855.137 705.384C855.165 706.877 855.647 708.325 856.518 709.539C859.903 704.274 869.948 700.497 881.796 700.497Z"></path>
<path fill="#D3D3D3" d="M881.796 700.497C869.948 700.497 859.903 704.274 856.384 709.539C859.903 714.782 869.948 718.581 881.796 718.581C893.645 718.581 903.689 714.782 907.208 709.539C903.689 704.274 893.645 700.497 881.796 700.497Z"></path>
<path fill="#9E9E9E" d="M882.22 711.805C882.22 711.805 868.857 711.294 857.565 693.72C852.866 686.455 850.594 682.612 850.594 682.612L869.102 681.234L848.367 676.058L838.59 661.128L855.783 659.839C855.783 659.839 842.977 655.396 833.824 655.396C833.824 655.396 817.966 627.447 813.311 623.448C825.314 624.192 837.046 627.328 847.814 632.67C858.582 638.012 868.168 645.452 876.006 654.552C902.086 685.234 886.073 712.605 882.22 711.805Z"></path>
<path fill="white" d="M882.219 711.805C882.219 711.805 890.527 661.928 837.543 631.935C837.543 631.935 892.531 658.284 882.219 711.805Z"></path>
<path fill="#9E9E9E" d="M882.22 711.805C882.22 711.805 894.246 712.583 906.184 697.786C911.106 691.699 913.489 688.477 913.489 688.477L896.941 685.5L916.117 682.767L926.362 670.215L910.972 667.46C910.972 667.46 922.954 664.616 931.217 665.416C931.217 665.416 948.165 641.688 952.731 638.533C941.83 638.079 930.948 639.811 920.73 643.627C910.512 647.443 901.166 653.266 893.244 660.75C866.808 685.967 878.656 712.161 882.22 711.805Z"></path>
<path fill="black" d="M882.22 711.805C882.22 711.805 894.246 712.583 906.184 697.786C911.106 691.699 913.489 688.477 913.489 688.477L896.941 685.5L916.117 682.767L926.362 670.215L910.972 667.46C910.972 667.46 922.954 664.616 931.217 665.416C931.217 665.416 948.165 641.688 952.731 638.533C941.83 638.079 930.948 639.811 920.73 643.627C910.512 647.443 901.166 653.266 893.244 660.75C866.808 685.967 878.656 712.161 882.22 711.805Z" opacity="0.2"></path>
<path fill="white" d="M882.219 711.805C882.219 711.805 879.391 666.016 930.059 643.932C930.059 643.932 877.966 662.55 882.219 711.805Z"></path>
<path fill="#9E9E9E" d="M187.615 710.383L414.273 579.858C430.264 570.638 443.226 545.932 443.226 524.671V40.493C443.226 19.2313 430.264 9.38908 414.273 18.6758L187.615 149.201C171.624 158.421 158.662 183.127 158.662 204.389V688.588C158.662 709.828 171.624 719.692 187.615 710.383Z"></path>
<path fill="black" d="M161.513 134.027L388.17 3.47924C395.008 -0.453188 401.288 -0.96418 406.233 1.50192C406.845 1.79571 407.434 2.13744 407.992 2.52391L433.382 17.2316C428.281 14.2101 421.578 14.4101 414.25 18.6535L187.615 149.201C171.624 158.421 158.662 183.127 158.662 204.389V688.588C158.662 699.83 162.293 707.851 168.061 711.561L143.006 697.009C136.614 693.609 132.56 685.3 132.56 673.392V189.214C132.56 167.953 145.522 143.247 161.513 134.027Z"></path>
<path fill="black" d="M158.662 204.389V688.588C158.662 699.83 162.293 707.851 168.061 711.561L143.005 697.009C136.613 693.609 132.56 685.3 132.56 673.392V189.214L158.662 204.255V204.389Z"></path>
<path fill="black" d="M132.56 226.806L158.662 241.847V253.577L132.56 238.536V226.806Z"></path>
<path fill="black" d="M143.985 304.921C146.213 306.254 148.217 304.921 148.217 301.722V276.483C148.193 274.902 147.798 273.349 147.063 271.949C146.328 270.548 145.274 269.339 143.985 268.418C141.758 267.085 139.776 268.418 139.776 271.618V296.856C139.801 298.434 140.195 299.985 140.925 301.385C141.656 302.785 142.704 303.996 143.985 304.921Z"></path>
<path fill="#9E9E9E" d="M148.217 301.722V276.483C148.193 274.902 147.798 273.349 147.063 271.949C146.328 270.548 145.274 269.339 143.985 268.418C143.603 268.152 143.157 267.99 142.693 267.947C142.228 267.904 141.76 267.982 141.335 268.174L144.431 266.463C144.863 266.246 145.346 266.15 145.828 266.185C146.311 266.22 146.774 266.386 147.17 266.663C148.46 267.582 149.515 268.791 150.25 270.192C150.985 271.593 151.38 273.147 151.402 274.728V299.967C151.471 300.604 151.376 301.248 151.127 301.839C150.878 302.43 150.482 302.948 149.976 303.344L146.658 305.054C147.189 304.685 147.613 304.182 147.887 303.597C148.16 303.012 148.274 302.365 148.217 301.722Z"></path>
<path fill="black" d="M143.985 366.04C146.213 367.396 148.217 366.04 148.217 362.863V337.558C148.195 335.98 147.8 334.429 147.065 333.032C146.33 331.635 145.275 330.43 143.985 329.515C141.758 328.16 139.776 329.515 139.776 332.692V357.998C139.801 359.573 140.195 361.12 140.925 362.517C141.656 363.913 142.704 365.12 143.985 366.04Z"></path>
<path fill="#9E9E9E" d="M148.217 362.863V337.558C148.195 335.98 147.8 334.429 147.065 333.032C146.33 331.635 145.275 330.43 143.985 329.515C143.604 329.245 143.159 329.08 142.693 329.037C142.228 328.994 141.759 329.075 141.335 329.271L144.498 327.649C144.93 327.432 145.413 327.336 145.895 327.371C146.377 327.406 146.841 327.572 147.237 327.849C148.525 328.77 149.579 329.979 150.314 331.379C151.049 332.78 151.445 334.333 151.469 335.914V361.153C151.54 361.79 151.446 362.435 151.197 363.026C150.947 363.617 150.55 364.135 150.043 364.53L146.725 366.262C147.258 365.883 147.678 365.366 147.941 364.768C148.203 364.17 148.299 363.511 148.217 362.863Z"></path>
<path fill="#9E9E9E" d="M195.5 162.82L418.371 34.4944C419.305 33.987 420.354 33.73 421.418 33.7485C422.481 33.767 423.521 34.0603 424.437 34.5998C425.352 35.1394 426.112 35.9066 426.642 36.8266C427.171 37.7466 427.452 38.7879 427.457 39.8487V524.67C427.457 540.845 415.965 560.729 401.912 568.816L184.52 693.987C183.496 694.609 182.323 694.945 181.124 694.96C179.925 694.974 178.744 694.666 177.705 694.069C176.667 693.471 175.809 692.606 175.221 691.563C174.633 690.521 174.337 689.34 174.364 688.144V199.234C174.408 185.882 183.896 169.508 195.5 162.82Z"></path>
<path fill="white" d="M195.5 162.82L418.371 34.4944C419.305 33.987 420.354 33.73 421.418 33.7485C422.481 33.767 423.521 34.0603 424.437 34.5998C425.352 35.1394 426.112 35.9066 426.642 36.8266C427.171 37.7466 427.452 38.7879 427.457 39.8487V524.67C427.457 540.845 415.965 560.729 401.912 568.816L184.52 693.987C183.496 694.609 182.323 694.945 181.124 694.96C179.925 694.974 178.744 694.666 177.705 694.069C176.667 693.471 175.809 692.606 175.221 691.563C174.633 690.521 174.337 689.34 174.364 688.144V199.234C174.408 185.882 183.896 169.508 195.5 162.82Z" opacity="0.5"></path>
<path fill="#9E9E9E" d="M351.645 67.9978L348.193 82.5056L274.363 124.962L261.624 118.186L351.645 67.9978Z"></path>
<path fill="black" d="M329.953 82.0611C329.953 84.4606 331.645 85.4381 333.716 84.2829C334.818 83.5681 335.735 82.604 336.393 81.469C337.051 80.334 337.431 79.0602 337.503 77.751C337.503 75.3516 335.81 74.374 333.716 75.5293C332.621 76.2492 331.71 77.2149 331.057 78.3492C330.403 79.4835 330.025 80.7548 329.953 82.0611Z"></path>
<path fill="black" d="M280.287 112.676C280.691 112.679 281.09 112.579 281.445 112.388L319.151 91.348C319.423 91.1996 319.663 90.9986 319.857 90.7568C320.051 90.5149 320.195 90.237 320.28 89.9392C320.365 89.6414 320.389 89.3297 320.352 89.0223C320.315 88.7149 320.217 88.4179 320.064 88.1487C319.759 87.6042 319.25 87.2026 318.649 87.0318C318.048 86.861 317.403 86.9351 316.857 87.2378L279.129 108.255C278.586 108.568 278.187 109.079 278.016 109.681C277.846 110.283 277.917 110.927 278.216 111.477C278.424 111.841 278.726 112.144 279.089 112.355C279.453 112.566 279.866 112.677 280.287 112.676Z"></path>
<path fill="#F9FAFE" d="M472.201 603.252C423.515 632.135 296.835 707.673 234.14 745.309C232.272 746.43 230.138 747.036 227.957 747.065C225.777 747.094 223.628 746.545 221.729 745.474C219.831 744.403 218.252 742.848 217.154 740.969C216.055 739.09 215.477 736.953 215.477 734.778V212.187C215.476 206.239 217.036 200.394 220.002 195.233C222.967 190.073 227.235 185.776 232.381 182.771L473.337 41.8926C475.207 40.8022 477.333 40.2234 479.5 40.2145C481.666 40.2055 483.797 40.7669 485.676 41.8418C487.556 42.9167 489.118 44.4673 490.205 46.3369C491.291 48.2064 491.865 50.329 491.867 52.4902V568.616C491.877 575.594 490.07 582.455 486.622 588.527C483.175 594.599 478.206 599.673 472.201 603.252Z"></path>
<path fill="#D3D3D3" d="M471.221 601.586C433.018 624.336 394.807 647.101 356.589 669.881L288.75 710.361L257.771 728.89L244.229 737.022C240.109 739.488 235.722 742.976 231.201 744.598C224.029 747.13 217.615 741.354 217.415 734.333C217.415 733.111 217.415 731.912 217.415 730.69V251.533C217.415 238.781 217.415 226.028 217.415 213.253C217.326 207.349 218.82 201.528 221.741 196.392C224.661 191.256 228.904 186.991 234.029 184.038C239.552 180.772 245.165 177.55 250.644 174.329L328.483 128.717L420.731 74.7961C438.214 64.5763 455.675 54.2675 473.225 44.1143C478.303 41.1594 484.673 41.3594 488.259 46.6915C489.543 48.8309 490.134 51.3138 489.951 53.801C489.951 58.2444 489.951 62.91 489.951 67.4645V566.683C489.951 581.013 483.715 593.943 471.221 601.586C469.105 602.897 471.043 606.229 473.181 604.919C479.638 600.942 484.941 595.349 488.562 588.697C492.184 582.044 493.999 574.562 493.826 566.994V90.3481C493.826 77.9288 493.96 65.5094 493.826 53.1122C493.865 50.5038 493.195 47.9337 491.888 45.674C490.581 43.4144 488.686 41.5494 486.404 40.2765C484.121 39.0036 481.536 38.3703 478.922 38.4436C476.308 38.5169 473.762 39.2941 471.555 40.6929C465.764 44.0254 460.018 47.358 454.228 50.8239L374.251 97.6131L281.178 152.001C264.719 161.621 248.194 171.174 231.802 180.883C226.162 184.165 221.494 188.879 218.274 194.546C215.055 200.212 213.398 206.629 213.473 213.142C213.473 217.408 213.473 221.696 213.473 225.961V732.289C213.473 733.111 213.473 733.933 213.473 734.755C213.496 736.993 214.044 739.193 215.071 741.182C216.099 743.17 217.579 744.891 219.392 746.208C221.205 747.525 223.302 748.4 225.514 748.765C227.727 749.129 229.995 748.973 232.136 748.308C236.59 746.797 241.045 743.398 245.098 740.932L258.906 732.667L289.797 714.182C334.815 687.285 379.856 660.424 424.918 633.601L473.092 604.919C473.455 604.634 473.705 604.229 473.795 603.777C473.886 603.325 473.812 602.856 473.586 602.454C473.36 602.051 472.998 601.743 472.564 601.584C472.13 601.425 471.654 601.426 471.221 601.586Z"></path>
<path fill="#D3D3D3" d="M346.79 662.35L362.38 653.463C363.947 652.346 365.229 650.877 366.122 649.176C367.016 647.474 367.496 645.586 367.525 643.665V627.625C367.525 623.848 365.297 622.115 362.38 623.759L346.79 632.646C345.224 633.764 343.943 635.233 343.05 636.934C342.156 638.636 341.675 640.523 341.645 642.443V658.462C341.645 662.261 343.961 663.994 346.79 662.35Z"></path>
<path fill="white" d="M354.54 650.619C355.008 650.315 355.397 649.905 355.676 649.422C355.955 648.94 356.115 648.398 356.144 647.842V636.378C356.144 635.356 355.431 634.956 354.54 635.467C354.072 635.771 353.683 636.181 353.405 636.664C353.126 637.147 352.966 637.688 352.937 638.244V649.708C352.937 650.819 353.649 651.13 354.54 650.619Z"></path>
<path fill="white" d="M349.574 647.753L359.507 642.021C359.978 641.718 360.37 641.309 360.653 640.827C360.935 640.344 361.1 639.802 361.133 639.244C361.133 638.222 360.398 637.822 359.507 638.333L349.574 644.154C349.103 644.457 348.711 644.866 348.428 645.349C348.146 645.831 347.981 646.373 347.948 646.931C347.948 647.864 348.683 648.264 349.574 647.753Z"></path>
<path fill="#D3D3D3" d="M306.144 660.528C306.73 660.001 307.468 659.672 308.253 659.588C309.038 659.505 309.829 659.671 310.513 660.062C311.198 660.454 311.74 661.052 312.064 661.77C312.387 662.488 312.474 663.29 312.314 664.061C312.24 666.203 311.619 668.291 310.51 670.126C309.45 672.013 307.915 673.591 306.055 674.703C305.425 675.178 304.676 675.47 303.891 675.549C303.105 675.627 302.313 675.488 301.601 675.147C299.196 673.77 299.196 669.259 301.601 665.105C302.658 663.216 304.194 661.637 306.055 660.528M306.055 656.818C303.267 658.536 300.967 660.937 299.374 663.794C295.699 670.126 295.699 676.969 299.374 679.057C300.445 679.547 301.628 679.746 302.801 679.633C303.975 679.52 305.098 679.099 306.055 678.413C308.847 676.7 311.149 674.297 312.737 671.437C316.389 665.105 316.389 658.262 312.737 656.151C311.663 655.664 310.479 655.469 309.306 655.586C308.132 655.703 307.011 656.128 306.055 656.818Z"></path>
<path fill="#D3D3D3" d="M292.514 693.032C292.989 692.735 293.38 692.322 293.65 691.832L300.665 679.724C301.289 678.635 301.289 677.502 300.665 677.102C300.042 676.702 299.017 677.324 298.438 678.413L291.423 690.521C290.799 691.61 290.799 692.743 291.423 693.143C291.6 693.214 291.792 693.241 291.982 693.221C292.172 693.202 292.355 693.137 292.514 693.032Z"></path>
<path fill="#D3D3D3" d="M393.493 605.741C397.368 603.519 400.509 605.963 400.509 611.228C400.534 608.579 401.181 605.973 402.4 603.619C403.618 601.265 405.373 599.23 407.524 597.676C411.399 595.454 414.54 597.898 414.54 603.141C414.54 616.472 400.509 630.335 400.509 630.335C400.509 630.335 386.5 632.69 386.5 619.226C386.536 616.591 387.187 614.001 388.401 611.66C389.614 609.319 391.358 607.293 393.493 605.741Z"></path>
<path fill="#D3D3D3" d="M442.134 582.057C442.134 586.012 444.918 587.611 448.348 585.634C450.157 584.459 451.662 582.875 452.742 581.011C453.822 579.146 454.445 577.053 454.562 574.903C454.562 570.949 451.778 569.349 448.348 571.326C446.539 572.501 445.033 574.085 443.954 575.95C442.874 577.815 442.251 579.907 442.134 582.057Z"></path>
<path fill="#D3D3D3" d="M448.348 585.634C453.426 582.724 457.546 585.812 457.546 592.566V594.654L439.15 605.252V603.141C439.15 596.41 443.27 588.611 448.348 585.634Z"></path>
<path fill="#D3D3D3" d="M257.459 684.834L269.864 688.922V706.362L260.243 711.783V702.341C260.243 700.563 258.996 699.852 257.459 700.741C256.648 701.27 255.973 701.982 255.49 702.82C255.006 703.657 254.727 704.597 254.675 705.562V714.982L245.076 720.514V703.185L257.459 684.834Z"></path>
<path fill="#D3D3D3" d="M215.477 694.542C215.25 694.546 215.027 694.488 214.83 694.375C214.634 694.261 214.473 694.096 214.363 693.898C214.276 693.751 214.218 693.588 214.194 693.419C214.17 693.25 214.18 693.077 214.224 692.912C214.267 692.746 214.343 692.591 214.448 692.455C214.552 692.32 214.682 692.206 214.831 692.121L491.154 533.068C491.455 532.9 491.812 532.856 492.145 532.948C492.479 533.039 492.763 533.258 492.936 533.557C493.023 533.704 493.081 533.867 493.105 534.036C493.129 534.206 493.119 534.378 493.075 534.544C493.032 534.709 492.955 534.864 492.851 535C492.747 535.136 492.617 535.25 492.468 535.335L216.145 694.365C215.944 694.486 215.712 694.547 215.477 694.542Z"></path>
<path fill="#D3D3D3" d="M232.381 182.771L473.337 41.8926C475.207 40.8022 477.333 40.2234 479.499 40.2145C481.666 40.2055 483.797 40.7669 485.676 41.8418C487.556 42.9167 489.118 44.4673 490.205 46.3369C491.291 48.2064 491.865 50.329 491.866 52.4902V75.1739L215.477 234.315V212.098C215.492 206.165 217.059 200.338 220.024 195.195C222.989 190.051 227.248 185.769 232.381 182.771Z"></path>
<path fill="#9E9E9E" d="M282.014 261.737C289.837 248.22 289.84 233.612 282.021 229.109C274.203 224.606 261.523 231.913 253.7 245.43C245.877 258.946 245.873 273.554 253.692 278.057C261.511 282.56 274.191 275.254 282.014 261.737Z"></path>
<path fill="#9E9E9E" d="M298.995 249.556C298.502 249.559 298.022 249.399 297.629 249.101C297.237 248.803 296.955 248.383 296.828 247.908C296.701 247.433 296.735 246.929 296.926 246.475C297.116 246.022 297.452 245.644 297.881 245.401L330.977 226.339C331.491 226.044 332.101 225.965 332.673 226.12C333.245 226.274 333.733 226.648 334.028 227.161C334.324 227.674 334.403 228.282 334.248 228.853C334.094 229.424 333.718 229.91 333.204 230.205L300.109 249.245C299.775 249.452 299.388 249.56 298.995 249.556Z"></path>
<path fill="#9E9E9E" d="M299.106 230.494C298.613 230.497 298.133 230.337 297.741 230.039C297.349 229.741 297.067 229.321 296.939 228.846C296.812 228.371 296.846 227.867 297.037 227.413C297.228 226.959 297.564 226.582 297.993 226.339L388.972 173.951C389.481 173.685 390.073 173.626 390.625 173.786C391.177 173.946 391.645 174.312 391.933 174.808C392.22 175.304 392.304 175.892 392.168 176.448C392.031 177.005 391.684 177.487 391.199 177.795L300.331 230.205C299.959 230.417 299.534 230.517 299.106 230.494Z"></path>
<path fill="#9E9E9E" d="M287.882 611.628C287.882 624.381 278.973 639.866 267.837 646.242C256.701 652.619 247.793 647.442 247.793 634.712C247.793 621.981 256.701 606.474 267.837 600.098C278.973 593.721 287.882 598.898 287.882 611.628Z"></path>
<path fill="#9E9E9E" d="M298.995 619.16C298.502 619.163 298.022 619.003 297.629 618.705C297.237 618.407 296.955 617.987 296.828 617.512C296.701 617.037 296.735 616.533 296.926 616.079C297.116 615.625 297.452 615.248 297.881 615.005L330.977 595.943C331.23 595.782 331.514 595.674 331.81 595.626C332.107 595.577 332.41 595.589 332.702 595.66C332.993 595.731 333.268 595.861 333.508 596.04C333.748 596.22 333.95 596.447 334.1 596.706C334.25 596.965 334.346 597.253 334.383 597.55C334.419 597.847 334.394 598.149 334.311 598.437C334.227 598.725 334.086 598.993 333.896 599.225C333.706 599.456 333.47 599.648 333.204 599.787L300.109 618.849C299.771 619.048 299.387 619.156 298.995 619.16Z"></path>
<path fill="#9E9E9E" d="M299.106 600.098C298.613 600.101 298.133 599.941 297.741 599.643C297.349 599.345 297.067 598.925 296.939 598.45C296.812 597.975 296.846 597.471 297.037 597.017C297.228 596.563 297.564 596.185 297.993 595.943L388.972 543.555C389.481 543.289 390.073 543.23 390.625 543.39C391.177 543.55 391.645 543.916 391.933 544.412C392.22 544.908 392.304 545.496 392.168 546.052C392.031 546.609 391.684 547.091 391.199 547.399L300.331 599.72C299.969 599.963 299.543 600.094 299.106 600.098Z"></path>
<path fill="#9E9E9E" d="M287.882 496.388C287.882 509.141 278.973 524.626 267.837 531.002C256.701 537.379 247.793 532.202 247.793 519.472C247.793 506.741 256.701 491.234 267.837 484.857C278.973 478.481 287.882 483.658 287.882 496.388Z"></path>
<path fill="#9E9E9E" d="M298.995 503.898C298.509 503.893 298.038 503.729 297.654 503.432C297.269 503.135 296.993 502.721 296.867 502.253C296.741 501.784 296.772 501.288 296.955 500.839C297.138 500.39 297.463 500.013 297.881 499.765L330.977 480.703C331.23 480.542 331.514 480.434 331.81 480.386C332.107 480.337 332.41 480.349 332.702 480.42C332.993 480.491 333.268 480.621 333.508 480.8C333.748 480.98 333.95 481.207 334.1 481.466C334.25 481.725 334.346 482.012 334.383 482.31C334.419 482.607 334.394 482.909 334.311 483.197C334.227 483.485 334.086 483.752 333.896 483.984C333.706 484.216 333.47 484.408 333.204 484.546L300.109 503.609C299.769 503.801 299.385 503.9 298.995 503.898Z"></path>
<path fill="#9E9E9E" d="M299.107 484.835C298.718 484.833 298.337 484.729 298.001 484.534C297.665 484.339 297.386 484.06 297.191 483.724C296.899 483.217 296.819 482.615 296.969 482.049C297.12 481.483 297.487 480.999 297.993 480.703L388.972 428.315C389.481 428.023 390.084 427.944 390.651 428.094C391.219 428.243 391.704 428.61 392.001 429.115C392.149 429.367 392.246 429.646 392.286 429.935C392.326 430.225 392.308 430.52 392.234 430.802C392.159 431.085 392.029 431.351 391.852 431.583C391.674 431.816 391.453 432.011 391.199 432.158L300.332 484.546C299.96 484.758 299.534 484.858 299.107 484.835Z"></path>
<path fill="#9E9E9E" d="M254.712 559.447C254.67 558.984 254.489 558.708 254.17 558.621C253.851 558.534 253.417 558.648 252.87 558.962C252.498 559.175 252.184 559.416 251.927 559.683C251.671 559.947 251.475 560.223 251.338 560.511C251.204 560.797 251.138 561.073 251.138 561.339C251.131 561.565 251.171 561.735 251.259 561.85C251.35 561.963 251.475 562.035 251.633 562.065C251.791 562.091 251.973 562.09 252.18 562.06C252.387 562.026 252.608 561.971 252.843 561.897L253.812 561.608C254.282 561.459 254.714 561.373 255.107 561.349C255.5 561.325 255.841 561.378 256.128 561.507C256.416 561.636 256.639 561.855 256.797 562.164C256.958 562.47 257.041 562.88 257.044 563.394C257.041 564.154 256.872 564.907 256.539 565.655C256.209 566.396 255.732 567.099 255.107 567.763C254.486 568.422 253.737 569.003 252.859 569.506C251.989 570.005 251.231 570.286 250.585 570.35C249.943 570.412 249.441 570.246 249.079 569.853C248.721 569.453 248.534 568.813 248.516 567.933L250.722 566.668C250.746 567.069 250.85 567.356 251.032 567.53C251.218 567.697 251.466 567.763 251.775 567.727C252.087 567.685 252.44 567.551 252.833 567.326C253.219 567.105 253.554 566.848 253.838 566.556C254.126 566.262 254.349 565.955 254.507 565.635C254.665 565.315 254.744 565.005 254.744 564.707C254.744 564.429 254.672 564.236 254.528 564.129C254.388 564.02 254.18 563.978 253.907 564.002C253.637 564.024 253.305 564.093 252.912 564.21L251.738 564.544C250.829 564.811 250.111 564.826 249.585 564.587C249.058 564.349 248.797 563.771 248.8 562.855C248.797 562.107 248.971 561.352 249.322 560.591C249.676 559.827 250.162 559.111 250.78 558.443C251.397 557.774 252.099 557.215 252.885 556.764C253.686 556.305 254.384 556.062 254.981 556.034C255.581 556.005 256.048 556.175 256.381 556.544C256.714 556.913 256.886 557.463 256.897 558.195L254.712 559.447Z"></path>
<path fill="#9E9E9E" d="M262.836 554.324V556.259L257.967 559.05V557.116L262.836 554.324ZM259.072 554.257L261.315 552.971V561.629C261.315 561.867 261.347 562.034 261.41 562.131C261.473 562.224 261.561 562.264 261.673 562.252C261.789 562.238 261.922 562.188 262.073 562.101C262.178 562.041 262.284 561.97 262.389 561.89C262.494 561.805 262.575 561.741 262.631 561.697L262.984 563.411C262.871 563.516 262.713 563.653 262.51 563.822C262.306 563.995 262.059 564.171 261.768 564.35C261.227 564.684 260.753 564.873 260.346 564.917C259.943 564.959 259.629 564.845 259.404 564.574C259.179 564.304 259.069 563.864 259.072 563.253V554.257Z"></path>
<path fill="#9E9E9E" d="M266.603 561.626C266.087 561.922 265.627 562.083 265.224 562.109C264.82 562.13 264.501 562.005 264.266 561.733C264.034 561.455 263.918 561.009 263.918 560.396C263.918 559.881 264.001 559.4 264.166 558.955C264.33 558.51 264.555 558.099 264.839 557.722C265.124 557.345 265.447 556.999 265.808 556.683C266.173 556.365 266.556 556.069 266.956 555.795C267.426 555.469 267.805 555.2 268.093 554.986C268.38 554.769 268.589 554.573 268.719 554.397C268.849 554.222 268.914 554.036 268.914 553.838V553.802C268.914 553.419 268.809 553.183 268.598 553.094C268.391 553.004 268.096 553.068 267.714 553.287C267.31 553.518 266.989 553.805 266.75 554.148C266.512 554.486 266.354 554.83 266.277 555.181L264.202 556.177C264.308 555.552 264.515 554.946 264.824 554.358C265.132 553.765 265.531 553.219 266.019 552.717C266.51 552.21 267.078 551.771 267.724 551.401C268.173 551.143 268.603 550.957 269.014 550.843C269.428 550.726 269.795 550.703 270.114 550.774C270.437 550.843 270.692 551.024 270.878 551.316C271.064 551.604 271.157 552.025 271.157 552.577V558.84L269.03 560.06V558.772L268.967 558.808C268.837 559.173 268.663 559.528 268.445 559.875C268.228 560.217 267.966 560.538 267.661 560.838C267.356 561.134 267.003 561.397 266.603 561.626ZM267.245 559.481C267.575 559.291 267.866 559.05 268.119 558.756C268.372 558.458 268.57 558.139 268.714 557.798C268.858 557.458 268.93 557.124 268.93 556.798V555.812C268.86 555.905 268.763 556.009 268.64 556.123C268.521 556.232 268.386 556.348 268.235 556.471C268.084 556.589 267.933 556.706 267.782 556.821C267.631 556.932 267.494 557.032 267.372 557.123C267.108 557.318 266.878 557.52 266.682 557.73C266.485 557.939 266.333 558.158 266.224 558.385C266.115 558.609 266.061 558.842 266.061 559.083C266.061 559.434 266.171 559.639 266.392 559.697C266.617 559.75 266.901 559.678 267.245 559.481Z"></path>
<path fill="#9E9E9E" d="M277.197 546.091V548.025L272.328 550.817V548.882L277.197 546.091ZM273.433 546.024L275.676 544.738V553.396C275.676 553.633 275.708 553.801 275.771 553.897C275.834 553.99 275.922 554.031 276.034 554.019C276.15 554.005 276.283 553.954 276.434 553.868C276.539 553.808 276.645 553.737 276.75 553.657C276.855 553.572 276.936 553.508 276.992 553.463L277.345 555.178C277.232 555.282 277.074 555.419 276.871 555.588C276.667 555.761 276.42 555.938 276.129 556.117C275.588 556.451 275.114 556.64 274.707 556.684C274.304 556.726 273.99 556.611 273.765 556.341C273.54 556.071 273.43 555.63 273.433 555.02V546.024Z"></path>
<path fill="#9E9E9E" d="M283.843 547.613V542.28L286.086 540.995V550.281L283.933 551.515V549.829L283.849 549.877C283.666 550.526 283.363 551.137 282.938 551.711C282.517 552.283 282.003 552.743 281.396 553.091C280.855 553.401 280.38 553.532 279.969 553.486C279.558 553.439 279.237 553.222 279.006 552.835C278.777 552.446 278.662 551.889 278.658 551.166V545.253L280.901 543.967V549.421C280.904 549.967 281.032 550.327 281.285 550.5C281.538 550.674 281.876 550.639 282.301 550.395C282.571 550.24 282.824 550.025 283.059 549.749C283.294 549.469 283.484 549.147 283.628 548.782C283.775 548.416 283.847 548.026 283.843 547.613Z"></path>
<path fill="#9E9E9E" d="M294.608 538.757L292.555 540.079C292.519 539.898 292.444 539.76 292.328 539.665C292.212 539.566 292.06 539.523 291.87 539.535C291.684 539.54 291.461 539.618 291.202 539.767C290.854 539.966 290.561 540.219 290.323 540.525C290.084 540.827 289.965 541.117 289.965 541.395C289.965 541.617 290.042 541.76 290.196 541.824C290.351 541.889 290.616 541.86 290.991 541.738L292.455 541.237C293.241 540.972 293.827 540.934 294.213 541.124C294.599 541.314 294.792 541.743 294.792 542.412C294.792 543.021 294.636 543.644 294.323 544.283C294.015 544.919 293.59 545.522 293.049 546.089C292.512 546.651 291.893 547.133 291.191 547.536C290.121 548.149 289.268 548.382 288.633 548.235C288.001 548.081 287.631 547.592 287.522 546.767L289.728 545.37C289.794 545.706 289.956 545.9 290.212 545.951C290.468 545.997 290.796 545.906 291.196 545.677C291.589 545.451 291.905 545.183 292.144 544.873C292.386 544.557 292.509 544.259 292.512 543.979C292.509 543.747 292.423 543.605 292.255 543.552C292.086 543.496 291.826 543.528 291.475 543.648L290.075 544.131C289.285 544.402 288.698 544.425 288.312 544.199C287.929 543.971 287.738 543.51 287.738 542.817C287.738 542.22 287.878 541.626 288.159 541.034C288.443 540.439 288.841 539.878 289.354 539.351C289.87 538.821 290.473 538.358 291.165 537.962C292.186 537.377 292.99 537.164 293.576 537.323C294.165 537.481 294.509 537.959 294.608 538.757Z"></path>
<path fill="#9E9E9E" d="M304.82 535.587V530.254L307.063 528.968V538.255L304.91 539.489V537.802L304.826 537.851C304.643 538.499 304.34 539.111 303.915 539.685C303.494 540.257 302.98 540.717 302.372 541.065C301.832 541.375 301.356 541.506 300.946 541.459C300.535 541.413 300.214 541.196 299.982 540.809C299.754 540.42 299.639 539.863 299.635 539.14V533.227L301.878 531.941V537.395C301.881 537.941 302.009 538.301 302.262 538.474C302.515 538.648 302.853 538.613 303.278 538.369C303.548 538.214 303.801 537.999 304.036 537.723C304.271 537.443 304.461 537.121 304.605 536.756C304.752 536.39 304.824 536 304.82 535.587Z"></path>
<path fill="#9E9E9E" d="M308.857 540.709V527.94L311.068 526.672V528.232L311.168 528.175C311.266 527.869 311.408 527.533 311.594 527.169C311.784 526.798 312.029 526.44 312.331 526.093C312.637 525.741 313.016 525.435 313.468 525.175C314.058 524.837 314.602 524.703 315.1 524.772C315.599 524.837 315.997 525.138 316.295 525.677C316.594 526.211 316.743 527.01 316.743 528.074C316.743 529.11 316.597 530.068 316.306 530.949C316.018 531.823 315.625 532.586 315.127 533.239C314.632 533.885 314.077 534.385 313.463 534.737C313.028 534.986 312.658 535.116 312.352 535.126C312.05 535.133 311.803 535.068 311.61 534.928C311.417 534.785 311.27 534.614 311.168 534.414L311.099 534.453V539.423L308.857 540.709ZM311.052 531.325C311.052 531.877 311.119 532.32 311.252 532.655C311.385 532.99 311.578 533.199 311.831 533.284C312.084 533.365 312.391 533.302 312.752 533.095C313.117 532.885 313.426 532.593 313.679 532.219C313.932 531.84 314.123 531.408 314.253 530.923C314.386 530.431 314.453 529.915 314.453 529.375C314.453 528.839 314.388 528.405 314.258 528.072C314.128 527.739 313.937 527.531 313.684 527.446C313.431 527.361 313.121 527.424 312.752 527.635C312.387 527.845 312.079 528.132 311.826 528.499C311.577 528.863 311.385 529.288 311.252 529.771C311.119 530.255 311.052 530.772 311.052 531.325Z"></path>
<path fill="#9E9E9E" d="M321.217 530.291C320.603 530.643 320.047 530.781 319.549 530.704C319.054 530.621 318.661 530.308 318.369 529.766C318.082 529.217 317.938 528.425 317.938 527.389C317.938 526.325 318.087 525.355 318.385 524.478C318.683 523.598 319.08 522.841 319.575 522.206C320.073 521.566 320.619 521.076 321.212 520.736C321.665 520.476 322.042 520.349 322.344 520.353C322.649 520.351 322.895 520.428 323.081 520.583C323.27 520.733 323.414 520.904 323.513 521.098L323.581 521.058V516.403L325.818 515.12V527.502L323.607 528.77V527.282L323.513 527.337C323.407 527.655 323.258 527.997 323.065 528.361C322.876 528.72 322.628 529.069 322.323 529.409C322.021 529.748 321.653 530.042 321.217 530.291ZM321.928 527.834C322.29 527.627 322.595 527.339 322.844 526.97C323.097 526.596 323.29 526.165 323.423 525.677C323.56 525.188 323.628 524.667 323.628 524.114C323.628 523.562 323.562 523.121 323.428 522.79C323.295 522.46 323.102 522.256 322.849 522.179C322.597 522.102 322.29 522.168 321.928 522.375C321.56 522.586 321.249 522.879 320.996 523.254C320.744 523.628 320.552 524.056 320.422 524.538C320.293 525.019 320.228 525.528 320.228 526.064C320.228 526.604 320.293 527.045 320.422 527.385C320.556 527.72 320.747 527.933 320.996 528.024C321.249 528.109 321.56 528.045 321.928 527.834Z"></path>
<path fill="#9E9E9E" d="M329.968 525.298C329.452 525.594 328.992 525.755 328.589 525.781C328.185 525.803 327.866 525.677 327.631 525.405C327.399 525.127 327.283 524.681 327.283 524.069C327.283 523.553 327.366 523.072 327.531 522.627C327.695 522.182 327.92 521.771 328.204 521.394C328.489 521.018 328.812 520.671 329.173 520.355C329.538 520.037 329.921 519.741 330.321 519.468C330.791 519.142 331.17 518.872 331.458 518.659C331.745 518.441 331.954 518.245 332.084 518.07C332.214 517.894 332.279 517.708 332.279 517.511V517.474C332.279 517.091 332.174 516.856 331.963 516.767C331.756 516.676 331.461 516.74 331.079 516.959C330.675 517.191 330.354 517.478 330.115 517.82C329.877 518.158 329.719 518.503 329.642 518.853L327.567 519.849C327.673 519.224 327.88 518.618 328.189 518.03C328.497 517.438 328.896 516.891 329.384 516.389C329.875 515.882 330.443 515.443 331.089 515.073C331.538 514.816 331.968 514.629 332.379 514.515C332.793 514.398 333.16 514.376 333.479 514.446C333.802 514.515 334.057 514.696 334.243 514.988C334.429 515.277 334.522 515.697 334.522 516.249V522.513L332.395 523.732V522.444L332.332 522.48C332.202 522.845 332.028 523.2 331.81 523.547C331.593 523.889 331.331 524.21 331.026 524.51C330.721 524.806 330.368 525.069 329.968 525.298ZM330.61 523.153C330.94 522.964 331.231 522.722 331.484 522.428C331.737 522.13 331.935 521.811 332.079 521.47C332.223 521.13 332.295 520.796 332.295 520.47V519.485C332.225 519.577 332.128 519.681 332.005 519.796C331.886 519.904 331.751 520.02 331.6 520.143C331.449 520.262 331.298 520.378 331.147 520.493C330.996 520.604 330.859 520.704 330.737 520.795C330.473 520.99 330.243 521.193 330.047 521.402C329.85 521.611 329.698 521.83 329.589 522.058C329.48 522.281 329.426 522.514 329.426 522.756C329.426 523.106 329.536 523.311 329.757 523.37C329.982 523.422 330.266 523.35 330.61 523.153Z"></path>
<path fill="#9E9E9E" d="M340.562 509.763V511.698L335.693 514.489V512.555L340.562 509.763ZM336.798 509.696L339.041 508.41V517.068C339.041 517.306 339.073 517.473 339.136 517.57C339.199 517.663 339.287 517.703 339.399 517.691C339.515 517.677 339.648 517.627 339.799 517.54C339.904 517.48 340.01 517.409 340.115 517.329C340.22 517.244 340.301 517.18 340.357 517.136L340.71 518.85C340.597 518.955 340.439 519.092 340.236 519.261C340.032 519.434 339.785 519.61 339.494 519.789C338.953 520.123 338.479 520.312 338.072 520.356C337.669 520.398 337.355 520.284 337.13 520.013C336.905 519.743 336.795 519.303 336.798 518.692V509.696Z"></path>
<path fill="#9E9E9E" d="M345.621 516.33C344.79 516.807 344.074 517.024 343.473 516.981C342.877 516.932 342.417 516.644 342.094 516.115C341.771 515.583 341.61 514.827 341.61 513.848C341.61 512.893 341.771 511.962 342.094 511.055C342.417 510.149 342.872 509.326 343.458 508.587C344.047 507.846 344.739 507.248 345.532 506.793C346.065 506.487 346.562 506.301 347.022 506.235C347.485 506.163 347.888 506.224 348.232 506.418C348.58 506.609 348.85 506.946 349.043 507.428C349.236 507.906 349.333 508.54 349.333 509.33V510.037L342.505 513.951V512.355L347.222 509.651C347.222 509.28 347.151 508.992 347.011 508.786C346.871 508.581 346.676 508.469 346.427 508.45C346.181 508.426 345.895 508.507 345.569 508.694C345.228 508.89 344.926 509.153 344.663 509.486C344.403 509.812 344.2 510.168 344.053 510.555C343.905 510.938 343.83 511.314 343.826 511.682V513.2C343.826 513.659 343.9 514.014 344.047 514.264C344.198 514.512 344.411 514.648 344.684 514.673C344.958 514.697 345.283 514.602 345.658 514.387C345.907 514.244 346.135 514.073 346.343 513.873C346.55 513.674 346.727 513.452 346.874 513.206C347.022 512.96 347.134 512.698 347.211 512.42L349.285 511.388C349.18 512.021 348.964 512.644 348.638 513.259C348.315 513.867 347.897 514.437 347.385 514.969C346.876 515.494 346.288 515.948 345.621 516.33Z"></path>
<path fill="#9E9E9E" d="M353.776 511.625C353.162 511.977 352.605 512.115 352.107 512.038C351.612 511.955 351.219 511.642 350.928 511.1C350.64 510.551 350.496 509.759 350.496 508.723C350.496 507.659 350.645 506.689 350.944 505.812C351.242 504.932 351.638 504.175 352.133 503.54C352.632 502.9 353.177 502.41 353.77 502.07C354.223 501.81 354.6 501.683 354.902 501.687C355.208 501.685 355.453 501.762 355.639 501.917C355.829 502.067 355.973 502.238 356.071 502.432L356.139 502.392V497.737L358.377 496.454V508.836L356.166 510.104V508.616L356.071 508.671C355.966 508.989 355.816 509.331 355.623 509.695C355.434 510.054 355.187 510.403 354.881 510.743C354.579 511.082 354.211 511.376 353.776 511.625ZM354.486 509.168C354.848 508.961 355.153 508.673 355.402 508.304C355.655 507.93 355.848 507.499 355.981 507.011C356.118 506.522 356.187 506.001 356.187 505.449C356.187 504.896 356.12 504.455 355.987 504.124C355.853 503.794 355.66 503.59 355.408 503.513C355.155 503.436 354.848 503.502 354.486 503.709C354.118 503.92 353.807 504.213 353.555 504.588C353.302 504.962 353.111 505.39 352.981 505.872C352.851 506.353 352.786 506.862 352.786 507.398C352.786 507.938 352.851 508.379 352.981 508.719C353.114 509.054 353.305 509.267 353.555 509.358C353.807 509.443 354.118 509.379 354.486 509.168Z"></path>
<path fill="#9E9E9E" d="M452.446 330.893L256.635 443.667C255.744 444.183 254.732 444.455 253.702 444.456C252.671 444.457 251.659 444.187 250.767 443.674C249.874 443.16 249.134 442.42 248.619 441.53C248.105 440.639 247.835 439.629 247.838 438.601V315.008C247.835 312.523 248.488 310.082 249.732 307.929C250.975 305.776 252.764 303.988 254.92 302.744L450.731 189.97C451.623 189.461 452.634 189.194 453.661 189.197C454.689 189.199 455.698 189.47 456.588 189.982C457.478 190.495 458.218 191.231 458.734 192.117C459.25 193.004 459.524 194.01 459.528 195.035V318.696C459.524 321.17 458.867 323.599 457.624 325.74C456.381 327.881 454.595 329.658 452.446 330.893Z"></path>
<path fill="#D3D3D3" d="M452.446 330.893L256.635 443.667C255.744 444.183 254.732 444.455 253.702 444.456C252.671 444.457 251.659 444.187 250.767 443.674C249.874 443.16 249.134 442.42 248.619 441.53C248.105 440.639 247.835 439.629 247.838 438.601V315.008C247.835 312.523 248.488 310.082 249.732 307.929C250.975 305.776 252.764 303.988 254.92 302.744L450.731 189.97C451.623 189.461 452.634 189.194 453.661 189.197C454.689 189.199 455.698 189.47 456.588 189.982C457.478 190.495 458.218 191.231 458.734 192.117C459.25 193.004 459.524 194.01 459.528 195.035V318.696C459.524 321.17 458.867 323.599 457.624 325.74C456.381 327.881 454.595 329.658 452.446 330.893Z" opacity="0.5"></path>
<path fill="white" d="M383.495 351.032C398.772 324.636 398.773 296.106 383.498 287.309C368.222 278.511 343.455 292.777 328.178 319.173C312.901 345.568 312.9 374.098 328.175 382.896C343.451 391.694 368.218 377.428 383.495 351.032Z"></path>
<path fill="#9E9E9E" d="M459.551 272.284V318.696C459.541 321.171 458.88 323.601 457.633 325.742C456.386 327.883 454.597 329.659 452.446 330.893L256.612 443.667C255.723 444.184 254.712 444.458 253.682 444.46C252.653 444.461 251.641 444.191 250.75 443.677C249.859 443.162 249.12 442.422 248.608 441.531C248.097 440.639 247.831 439.628 247.837 438.601V394.167L459.551 272.284Z"></path>
<path fill="#9E9E9E" d="M306.3 396.256C305.2 396.197 304.157 395.748 303.36 394.989C302.447 394.278 302.113 394.034 300.91 394.7C300.766 394.842 300.592 394.949 300.4 395.014C300.209 395.079 300.005 395.099 299.804 395.074C299.604 395.048 299.411 394.978 299.242 394.868C299.073 394.757 298.93 394.61 298.826 394.437C298.722 394.264 298.659 394.07 298.641 393.869C298.623 393.668 298.651 393.465 298.723 393.277C298.796 393.088 298.909 392.918 299.057 392.78C299.204 392.642 299.381 392.539 299.574 392.479C300.392 391.907 301.386 391.643 302.381 391.733C303.375 391.822 304.306 392.26 305.008 392.967C305.922 393.678 306.256 393.945 307.458 393.256C309.006 392.135 310.197 390.592 310.888 388.813C311.796 386.59 313.347 384.688 315.342 383.347C316.157 382.778 317.147 382.514 318.138 382.604C319.129 382.693 320.056 383.13 320.754 383.836C321.69 384.569 322.024 384.814 323.227 384.125C324.776 383.01 325.961 381.465 326.634 379.682C327.546 377.456 329.096 375.547 331.088 374.194C331.908 373.627 332.901 373.365 333.894 373.455C334.888 373.544 335.818 373.979 336.523 374.683C337.436 375.394 337.792 375.66 338.973 374.972C339.281 374.8 339.644 374.756 339.985 374.847C340.326 374.938 340.618 375.158 340.799 375.46C340.887 375.612 340.944 375.78 340.967 375.953C340.989 376.127 340.978 376.303 340.932 376.473C340.887 376.642 340.808 376.8 340.701 376.939C340.594 377.078 340.461 377.195 340.309 377.282C339.491 377.853 338.497 378.118 337.502 378.028C336.508 377.939 335.577 377.501 334.875 376.793C333.961 376.082 333.605 375.816 332.425 376.505C330.865 377.614 329.672 379.161 328.995 380.948C328.079 383.166 326.53 385.066 324.541 386.413C323.723 386.985 322.728 387.249 321.734 387.159C320.739 387.07 319.809 386.633 319.106 385.925C318.193 385.214 317.837 384.947 316.656 385.636C315.099 386.747 313.906 388.293 313.227 390.079C312.325 392.311 310.773 394.223 308.772 395.567C308.024 396.011 307.171 396.248 306.3 396.256Z"></path>
<g opacity="0.5">
<path fill="white" d="M306.3 396.256C305.2 396.197 304.157 395.748 303.36 394.989C302.447 394.278 302.113 394.034 300.91 394.7C300.766 394.842 300.592 394.949 300.4 395.014C300.209 395.079 300.005 395.099 299.804 395.074C299.604 395.048 299.411 394.978 299.242 394.868C299.073 394.757 298.93 394.61 298.826 394.437C298.722 394.264 298.659 394.07 298.641 393.869C298.623 393.668 298.651 393.465 298.723 393.277C298.796 393.088 298.909 392.918 299.057 392.78C299.204 392.642 299.381 392.539 299.574 392.479C300.392 391.907 301.386 391.643 302.381 391.733C303.375 391.822 304.306 392.26 305.008 392.967C305.922 393.678 306.256 393.945 307.458 393.256C309.006 392.135 310.197 390.592 310.888 388.813C311.796 386.59 313.347 384.688 315.342 383.347C316.157 382.778 317.147 382.514 318.138 382.604C319.129 382.693 320.056 383.13 320.754 383.836C321.69 384.569 322.024 384.814 323.227 384.125C324.776 383.01 325.961 381.465 326.634 379.682C327.546 377.456 329.096 375.547 331.088 374.194C331.908 373.627 332.901 373.365 333.894 373.455C334.888 373.544 335.818 373.979 336.523 374.683C337.436 375.394 337.792 375.66 338.973 374.972C339.281 374.8 339.644 374.756 339.985 374.847C340.326 374.938 340.618 375.158 340.799 375.46C340.887 375.612 340.944 375.78 340.967 375.953C340.989 376.127 340.978 376.303 340.932 376.473C340.887 376.642 340.808 376.8 340.701 376.939C340.594 377.078 340.461 377.195 340.309 377.282C339.491 377.853 338.497 378.118 337.502 378.028C336.508 377.939 335.577 377.501 334.875 376.793C333.961 376.082 333.605 375.816 332.425 376.505C330.865 377.614 329.672 379.161 328.995 380.948C328.079 383.166 326.53 385.066 324.541 386.413C323.723 386.985 322.728 387.249 321.734 387.159C320.739 387.07 319.809 386.633 319.106 385.925C318.193 385.214 317.837 384.947 316.656 385.636C315.099 386.747 313.906 388.293 313.227 390.079C312.325 392.311 310.773 394.223 308.772 395.567C308.024 396.011 307.171 396.248 306.3 396.256Z"></path>
</g>
<path fill="#9E9E9E" d="M404.518 340.846C403.419 340.782 402.378 340.334 401.578 339.58C400.643 338.869 400.308 338.602 399.128 339.291C398.984 339.433 398.81 339.54 398.618 339.604C398.426 339.669 398.223 339.689 398.022 339.664C397.821 339.639 397.629 339.568 397.46 339.458C397.29 339.348 397.148 339.201 397.044 339.028C396.94 338.854 396.877 338.66 396.859 338.459C396.841 338.258 396.869 338.056 396.941 337.867C397.013 337.679 397.127 337.509 397.274 337.371C397.422 337.232 397.599 337.129 397.792 337.069C398.607 336.498 399.6 336.236 400.592 336.329C401.584 336.423 402.51 336.867 403.204 337.58C404.117 338.291 404.473 338.558 405.654 337.869C407.208 336.755 408.401 335.21 409.083 333.426C409.991 331.203 411.542 329.3 413.538 327.96C414.357 327.393 415.35 327.132 416.344 327.221C417.337 327.31 418.267 327.745 418.972 328.449C419.885 329.16 420.241 329.426 421.422 328.738C422.969 327.616 424.16 326.073 424.852 324.294C425.759 322.072 427.31 320.169 429.306 318.829C430.124 318.258 431.118 317.993 432.113 318.083C433.107 318.172 434.038 318.61 434.74 319.318C435.653 320.029 436.01 320.295 437.19 319.607C437.342 319.519 437.51 319.462 437.684 319.439C437.858 319.416 438.035 319.428 438.205 319.473C438.374 319.519 438.533 319.597 438.673 319.704C438.812 319.81 438.929 319.944 439.016 320.095C439.107 320.246 439.167 320.414 439.191 320.588C439.216 320.762 439.205 320.94 439.159 321.11C439.113 321.28 439.034 321.439 438.925 321.578C438.816 321.716 438.681 321.832 438.526 321.917C437.71 322.482 436.721 322.743 435.731 322.654C434.742 322.564 433.815 322.131 433.114 321.428C432.179 320.717 431.845 320.451 430.642 321.139C429.095 322.261 427.904 323.804 427.212 325.583C426.305 327.805 424.754 329.708 422.758 331.048C421.939 331.615 420.945 331.877 419.952 331.788C418.959 331.698 418.029 331.264 417.324 330.56C416.411 329.849 416.077 329.582 414.874 330.271C413.324 331.39 412.132 332.933 411.444 334.714C410.542 336.946 408.991 338.858 406.99 340.202C406.233 340.62 405.383 340.841 404.518 340.846Z"></path>
<g opacity="0.5">
<path fill="white" d="M404.518 340.846C403.419 340.782 402.378 340.334 401.578 339.58C400.643 338.869 400.308 338.602 399.128 339.291C398.984 339.433 398.81 339.54 398.618 339.604C398.426 339.669 398.223 339.689 398.022 339.664C397.821 339.639 397.629 339.568 397.46 339.458C397.29 339.348 397.148 339.201 397.044 339.028C396.94 338.854 396.877 338.66 396.859 338.459C396.841 338.258 396.869 338.056 396.941 337.867C397.013 337.679 397.127 337.509 397.274 337.371C397.422 337.232 397.599 337.129 397.792 337.069C398.607 336.498 399.6 336.236 400.592 336.329C401.584 336.423 402.51 336.867 403.204 337.58C404.117 338.291 404.473 338.558 405.654 337.869C407.208 336.755 408.401 335.21 409.083 333.426C409.991 331.203 411.542 329.3 413.538 327.96C414.357 327.393 415.35 327.132 416.344 327.221C417.337 327.31 418.267 327.745 418.972 328.449C419.885 329.16 420.241 329.426 421.422 328.738C422.969 327.616 424.16 326.073 424.852 324.294C425.759 322.072 427.31 320.169 429.306 318.829C430.124 318.258 431.118 317.993 432.113 318.083C433.107 318.172 434.038 318.61 434.74 319.318C435.653 320.029 436.01 320.295 437.19 319.607C437.342 319.519 437.51 319.462 437.684 319.439C437.858 319.416 438.035 319.428 438.205 319.473C438.374 319.519 438.533 319.597 438.673 319.704C438.812 319.81 438.929 319.944 439.016 320.095C439.107 320.246 439.167 320.414 439.191 320.588C439.216 320.762 439.205 320.94 439.159 321.11C439.113 321.28 439.034 321.439 438.925 321.578C438.816 321.716 438.681 321.832 438.526 321.917C437.71 322.482 436.721 322.743 435.731 322.654C434.742 322.564 433.815 322.131 433.114 321.428C432.179 320.717 431.845 320.451 430.642 321.139C429.095 322.261 427.904 323.804 427.212 325.583C426.305 327.805 424.754 329.708 422.758 331.048C421.939 331.615 420.945 331.877 419.952 331.788C418.959 331.698 418.029 331.264 417.324 330.56C416.411 329.849 416.077 329.582 414.874 330.271C413.324 331.39 412.132 332.933 411.444 334.714C410.542 336.946 408.991 338.858 406.99 340.202C406.233 340.62 405.383 340.841 404.518 340.846Z"></path>
</g>
<path fill="#9E9E9E" d="M342.18 363.907C341.085 363.846 340.045 363.406 339.24 362.663C338.327 361.952 337.97 361.686 336.79 362.374C336.481 362.546 336.118 362.59 335.778 362.499C335.437 362.408 335.145 362.188 334.964 361.886C334.873 361.735 334.813 361.567 334.789 361.393C334.764 361.218 334.775 361.041 334.821 360.871C334.867 360.701 334.946 360.542 335.055 360.403C335.164 360.265 335.299 360.149 335.454 360.064C336.272 359.493 337.266 359.228 338.26 359.318C339.255 359.407 340.185 359.845 340.888 360.553C341.801 361.264 342.135 361.53 343.338 360.841C344.882 359.722 346.066 358.178 346.745 356.398C347.662 354.175 349.21 352.267 351.2 350.91C352.019 350.338 353.015 350.075 354.011 350.168C355.007 350.262 355.937 350.706 356.634 351.421C357.547 352.132 357.903 352.399 359.084 351.71C360.638 350.596 361.831 349.051 362.513 347.267C363.422 345.039 364.972 343.129 366.968 341.779C367.787 341.206 368.783 340.943 369.779 341.037C370.775 341.131 371.705 341.575 372.402 342.29C373.337 343.001 373.672 343.268 374.874 342.579C375.018 342.437 375.193 342.33 375.384 342.265C375.576 342.201 375.78 342.18 375.98 342.206C376.181 342.231 376.373 342.302 376.543 342.412C376.712 342.522 376.854 342.669 376.958 342.842C377.062 343.015 377.126 343.21 377.144 343.411C377.161 343.612 377.133 343.814 377.061 344.003C376.989 344.191 376.875 344.361 376.728 344.499C376.58 344.638 376.404 344.741 376.21 344.801C375.396 345.381 374.4 345.65 373.403 345.561C372.406 345.471 371.474 345.028 370.776 344.312C369.863 343.601 369.507 343.334 368.304 344.023C366.762 345.145 365.579 346.688 364.897 348.467C363.984 350.686 362.434 352.588 360.442 353.932C359.629 354.506 358.638 354.772 357.646 354.682C356.654 354.593 355.727 354.153 355.03 353.443C354.095 352.732 353.761 352.466 352.558 353.154C351.012 354.272 349.827 355.816 349.151 357.598C348.235 359.816 346.686 361.716 344.696 363.063C343.951 363.569 343.08 363.861 342.18 363.907Z"></path>
<g opacity="0.5">
<path fill="white" d="M342.18 363.907C341.085 363.846 340.045 363.406 339.24 362.663C338.327 361.952 337.97 361.686 336.79 362.374C336.481 362.546 336.118 362.59 335.778 362.499C335.437 362.408 335.145 362.188 334.964 361.886C334.873 361.735 334.813 361.567 334.789 361.393C334.764 361.218 334.775 361.041 334.821 360.871C334.867 360.701 334.946 360.542 335.055 360.403C335.164 360.265 335.299 360.149 335.454 360.064C336.272 359.493 337.266 359.228 338.26 359.318C339.255 359.407 340.185 359.845 340.888 360.553C341.801 361.264 342.135 361.53 343.338 360.841C344.882 359.722 346.066 358.178 346.745 356.398C347.662 354.175 349.21 352.267 351.2 350.91C352.019 350.338 353.015 350.075 354.011 350.168C355.007 350.262 355.937 350.706 356.634 351.421C357.547 352.132 357.903 352.399 359.084 351.71C360.638 350.596 361.831 349.051 362.513 347.267C363.422 345.039 364.972 343.129 366.968 341.779C367.787 341.206 368.783 340.943 369.779 341.037C370.775 341.131 371.705 341.575 372.402 342.29C373.337 343.001 373.672 343.268 374.874 342.579C375.018 342.437 375.193 342.33 375.384 342.265C375.576 342.201 375.78 342.18 375.98 342.206C376.181 342.231 376.373 342.302 376.543 342.412C376.712 342.522 376.854 342.669 376.958 342.842C377.062 343.015 377.126 343.21 377.144 343.411C377.161 343.612 377.133 343.814 377.061 344.003C376.989 344.191 376.875 344.361 376.728 344.499C376.58 344.638 376.404 344.741 376.21 344.801C375.396 345.381 374.4 345.65 373.403 345.561C372.406 345.471 371.474 345.028 370.776 344.312C369.863 343.601 369.507 343.334 368.304 344.023C366.762 345.145 365.579 346.688 364.897 348.467C363.984 350.686 362.434 352.588 360.442 353.932C359.629 354.506 358.638 354.772 357.646 354.682C356.654 354.593 355.727 354.153 355.03 353.443C354.095 352.732 353.761 352.466 352.558 353.154C351.012 354.272 349.827 355.816 349.151 357.598C348.235 359.816 346.686 361.716 344.696 363.063C343.951 363.569 343.08 363.861 342.18 363.907Z"></path>
</g>
<path fill="#9E9E9E" d="M277.525 400.055C276.705 400.623 275.709 400.884 274.715 400.79C273.72 400.697 272.791 400.255 272.091 399.544C271.156 398.855 270.844 398.588 269.641 399.277C268.093 400.403 266.896 401.944 266.189 403.721C265.278 405.947 263.729 407.856 261.735 409.208C260.911 409.768 259.918 410.023 258.925 409.93C257.933 409.837 257.005 409.401 256.301 408.697C255.365 407.986 255.053 407.72 253.828 408.408C252.29 409.539 251.101 411.079 250.399 412.852C249.741 414.298 248.87 415.639 247.815 416.829V412.074L248.038 411.63C248.949 409.409 250.499 407.508 252.492 406.164C253.307 405.584 254.303 405.315 255.3 405.405C256.297 405.494 257.229 405.937 257.926 406.653C258.84 407.364 259.196 407.653 260.376 406.942C261.939 405.836 263.133 404.288 263.806 402.499C264.715 400.271 266.265 398.361 268.26 397.011C269.084 396.441 270.084 396.18 271.082 396.273C272.081 396.367 273.014 396.809 273.717 397.522C274.608 398.211 274.964 398.477 276.167 397.789C276.472 397.619 276.832 397.575 277.169 397.666C277.506 397.757 277.794 397.977 277.971 398.277C278.144 398.573 278.194 398.924 278.111 399.257C278.028 399.589 277.818 399.875 277.525 400.055Z"></path>
<g opacity="0.5">
<path fill="white" d="M277.525 400.055C276.705 400.623 275.709 400.884 274.715 400.79C273.72 400.697 272.791 400.255 272.091 399.544C271.156 398.855 270.844 398.588 269.641 399.277C268.093 400.403 266.896 401.944 266.189 403.721C265.278 405.947 263.729 407.856 261.735 409.208C260.911 409.768 259.918 410.023 258.925 409.93C257.933 409.837 257.005 409.401 256.301 408.697C255.365 407.986 255.053 407.72 253.828 408.408C252.29 409.539 251.101 411.079 250.399 412.852C249.741 414.298 248.87 415.639 247.815 416.829V412.074L248.038 411.63C248.949 409.409 250.499 407.508 252.492 406.164C253.307 405.584 254.303 405.315 255.3 405.405C256.297 405.494 257.229 405.937 257.926 406.653C258.84 407.364 259.196 407.653 260.376 406.942C261.939 405.836 263.133 404.288 263.806 402.499C264.715 400.271 266.265 398.361 268.26 397.011C269.084 396.441 270.084 396.18 271.082 396.273C272.081 396.367 273.014 396.809 273.717 397.522C274.608 398.211 274.964 398.477 276.167 397.789C276.472 397.619 276.832 397.575 277.169 397.666C277.506 397.757 277.794 397.977 277.971 398.277C278.144 398.573 278.194 398.924 278.111 399.257C278.028 399.589 277.818 399.875 277.525 400.055Z"></path>
</g>
<path fill="#9E9E9E" d="M459.551 287.614V290.902C458.52 291.972 457.683 293.212 457.078 294.568C456.157 296.788 454.61 298.695 452.624 300.055C451.807 300.622 450.815 300.882 449.824 300.788C448.834 300.695 447.908 300.254 447.212 299.544C446.277 298.856 445.943 298.567 444.74 299.256C443.195 300.38 442.005 301.922 441.31 303.699C440.414 305.935 438.862 307.848 436.856 309.187C436.115 309.657 435.261 309.918 434.384 309.942C433.288 309.884 432.247 309.444 431.444 308.698C430.531 307.987 430.174 307.698 428.972 308.409C428.687 308.49 428.384 308.474 428.11 308.365C427.835 308.256 427.605 308.058 427.455 307.805C427.304 307.551 427.243 307.254 427.28 306.961C427.316 306.669 427.449 306.397 427.658 306.187C428.478 305.629 429.468 305.375 430.456 305.468C431.445 305.561 432.369 305.997 433.07 306.698C433.983 307.432 434.339 307.676 435.542 306.987C437.088 305.87 438.273 304.325 438.949 302.544C439.879 300.334 441.425 298.437 443.404 297.078C444.225 296.516 445.217 296.257 446.209 296.346C447.201 296.435 448.131 296.867 448.838 297.567C449.751 298.278 450.107 298.567 451.288 297.878C452.836 296.757 454.027 295.214 454.718 293.435C455.626 291.207 457.176 289.297 459.172 287.947L459.551 287.614Z"></path>
<g opacity="0.5">
<path fill="white" d="M459.551 287.614V290.902C458.52 291.972 457.683 293.212 457.078 294.568C456.157 296.788 454.61 298.695 452.624 300.055C451.807 300.622 450.815 300.882 449.824 300.788C448.834 300.695 447.908 300.254 447.212 299.544C446.277 298.856 445.943 298.567 444.74 299.256C443.195 300.38 442.005 301.922 441.31 303.699C440.414 305.935 438.862 307.848 436.856 309.187C436.115 309.657 435.261 309.918 434.384 309.942C433.288 309.884 432.247 309.444 431.444 308.698C430.531 307.987 430.174 307.698 428.972 308.409C428.687 308.49 428.384 308.474 428.11 308.365C427.835 308.256 427.605 308.058 427.455 307.805C427.304 307.551 427.243 307.254 427.28 306.961C427.316 306.669 427.449 306.397 427.658 306.187C428.478 305.629 429.468 305.375 430.456 305.468C431.445 305.561 432.369 305.997 433.07 306.698C433.983 307.432 434.339 307.676 435.542 306.987C437.088 305.87 438.273 304.325 438.949 302.544C439.879 300.334 441.425 298.437 443.404 297.078C444.225 296.516 445.217 296.257 446.209 296.346C447.201 296.435 448.131 296.867 448.838 297.567C449.751 298.278 450.107 298.567 451.288 297.878C452.836 296.757 454.027 295.214 454.718 293.435C455.626 291.207 457.176 289.297 459.172 287.947L459.551 287.614Z"></path>
</g>
<path fill="white" d="M295.61 315.452L290.131 318.562V316.629C290.131 316.496 290.131 316.363 290.131 316.229C290.131 316.096 290.131 315.963 290.131 315.83C289.931 313.275 287.904 312.297 285.677 313.608C284.606 314.267 283.688 315.146 282.982 316.185C282.447 312.719 279.597 311.453 276.167 313.43C274.15 314.743 272.472 316.511 271.269 318.592C270.065 320.672 269.37 323.007 269.24 325.405V329.538C269.241 329.866 269.155 330.189 268.991 330.474C268.827 330.759 268.59 330.995 268.305 331.159L265.076 333.048C264.391 333.468 263.827 334.056 263.437 334.756C263.047 335.457 262.844 336.246 262.848 337.047C262.85 337.381 262.94 337.71 263.109 337.999C263.278 338.288 263.52 338.527 263.811 338.694C264.102 338.86 264.431 338.947 264.766 338.947C265.102 338.947 265.431 338.858 265.722 338.691L295.654 321.451C296.437 320.998 297.088 320.35 297.544 319.571C298.001 318.793 298.248 317.909 298.26 317.007C298.293 316.686 298.232 316.362 298.086 316.074C297.939 315.787 297.713 315.547 297.434 315.383C297.155 315.219 296.835 315.139 296.512 315.151C296.189 315.163 295.876 315.268 295.61 315.452Z"></path>
<path fill="white" d="M429.506 243.313L424.027 246.423V243.646C423.827 241.069 421.8 240.091 419.573 241.424C418.494 242.073 417.573 242.953 416.878 244.002C416.344 240.514 413.493 239.269 410.041 241.247C408.03 242.558 406.357 244.324 405.158 246.401C403.958 248.477 403.266 250.806 403.137 253.2V257.354C403.133 257.682 403.045 258.003 402.882 258.287C402.718 258.571 402.484 258.808 402.201 258.976L398.972 260.842C398.286 261.26 397.721 261.848 397.33 262.549C396.94 263.25 396.738 264.04 396.745 264.841C396.743 265.178 396.83 265.509 396.997 265.801C397.164 266.093 397.406 266.336 397.697 266.505C397.989 266.674 398.32 266.763 398.657 266.764C398.994 266.764 399.326 266.676 399.618 266.508L429.551 249.245C430.333 248.792 430.984 248.145 431.441 247.366C431.897 246.587 432.144 245.704 432.157 244.801C432.175 244.486 432.104 244.171 431.952 243.894C431.8 243.616 431.573 243.387 431.297 243.232C431.021 243.077 430.707 243.002 430.39 243.016C430.073 243.031 429.767 243.133 429.506 243.313Z"></path>
<path fill="white" d="M306.568 336.403L302.804 338.624V336.736C302.67 334.981 301.334 334.292 299.708 335.225C298.966 335.679 298.328 336.285 297.837 337.002C297.481 334.625 295.61 333.759 293.16 335.114C291.777 336.016 290.627 337.23 289.803 338.659C288.979 340.087 288.504 341.689 288.416 343.334V346.178C288.413 346.403 288.352 346.623 288.239 346.818C288.126 347.012 287.965 347.175 287.77 347.289L285.543 348.578C285.062 348.86 284.663 349.262 284.386 349.746C284.109 350.229 283.962 350.776 283.962 351.333C283.963 351.561 284.025 351.785 284.14 351.982C284.254 352.18 284.419 352.344 284.617 352.458C284.815 352.573 285.04 352.634 285.268 352.635C285.497 352.636 285.723 352.578 285.922 352.466L306.478 340.624C307.026 340.309 307.481 339.855 307.797 339.309C308.114 338.763 308.281 338.144 308.282 337.513C308.301 337.305 308.262 337.095 308.169 336.907C308.077 336.718 307.936 336.558 307.759 336.444C307.583 336.33 307.379 336.266 307.169 336.259C306.959 336.251 306.751 336.301 306.568 336.403Z"></path>
<path fill="#D3D3D3" d="M248.461 478.77C248.231 478.775 248.004 478.718 247.804 478.605C247.604 478.491 247.438 478.326 247.325 478.126C247.154 477.827 247.107 477.474 247.195 477.141C247.282 476.809 247.497 476.524 247.793 476.348L458.259 355.132C458.558 354.961 458.912 354.914 459.245 355.001C459.579 355.089 459.864 355.303 460.041 355.598C460.129 355.747 460.187 355.911 460.211 356.083C460.235 356.254 460.225 356.428 460.182 356.595C460.138 356.762 460.062 356.919 459.958 357.057C459.853 357.195 459.722 357.311 459.573 357.398L249.107 478.614C248.908 478.718 248.686 478.771 248.461 478.77Z"></path>
<path fill="#D3D3D3" d="M248.461 593.61C248.172 593.612 247.89 593.518 247.659 593.343C247.428 593.169 247.262 592.923 247.186 592.644C247.11 592.366 247.128 592.07 247.238 591.802C247.348 591.535 247.543 591.311 247.793 591.166L458.259 469.95C458.561 469.781 458.917 469.737 459.25 469.829C459.584 469.92 459.868 470.139 460.041 470.438C460.128 470.585 460.186 470.748 460.21 470.918C460.234 471.087 460.224 471.26 460.18 471.425C460.137 471.59 460.061 471.746 459.956 471.881C459.852 472.017 459.722 472.131 459.573 472.216L249.107 593.432C248.909 593.543 248.688 593.604 248.461 593.61Z"></path>
<path fill="#FFE680" d="M603.024 355.087C641.302 355.087 672.333 324.132 672.333 285.948C672.333 247.763 641.302 216.808 603.024 216.808C564.745 216.808 533.715 247.763 533.715 285.948C533.715 324.132 564.745 355.087 603.024 355.087Z"></path>
<path fill="#FFE680" d="M555.608 321.006C555.608 321.006 563.136 355.087 536.41 355.087C536.41 355.087 567.879 368.729 579.26 340.802L555.608 321.006Z"></path>
<path fill="#FFCC00" d="M608.347 287.925C612.127 286.664 615.335 284.103 617.397 280.7C619.458 277.296 620.239 273.272 619.599 269.347C618.958 265.422 616.94 261.852 613.903 259.276C610.866 256.7 607.01 255.285 603.024 255.285C599.037 255.285 595.181 256.7 592.144 259.276C589.108 261.852 587.089 265.422 586.449 269.347C585.809 273.272 586.589 277.296 588.651 280.7C590.712 284.103 593.92 286.664 597.701 287.925C591.119 289.201 585.186 292.716 580.913 297.869C576.64 303.023 574.292 309.497 574.271 316.185C574.271 316.318 574.271 316.452 574.271 316.585H631.91C631.91 316.452 631.91 316.318 631.91 316.185C631.883 309.478 629.516 302.99 625.217 297.833C620.917 292.676 614.953 289.173 608.347 287.925Z"></path>
<path fill="#FF9F99" d="M530.552 194.369C560.614 194.369 584.984 170.058 584.984 140.07C584.984 110.082 560.614 85.7714 530.552 85.7714C500.49 85.7714 476.121 110.082 476.121 140.07C476.121 170.058 500.49 194.369 530.552 194.369Z"></path>
<path fill="#FF9F99" d="M493.336 167.597C493.336 167.597 499.238 194.258 478.17 194.258C478.17 194.258 502.869 204.966 511.8 183.149L493.336 167.597Z"></path>
<path fill="#E0342A" d="M545.162 120.097C541.287 120.097 537.571 121.632 534.831 124.366C532.091 127.099 530.552 130.806 530.552 134.671C530.552 130.806 529.013 127.099 526.273 124.366C523.533 121.632 519.817 120.097 515.942 120.097C512.067 120.097 508.351 121.632 505.611 124.366C502.871 127.099 501.332 130.806 501.332 134.671C501.332 158.466 530.552 167.73 530.552 167.73C530.552 167.73 559.772 158.466 559.772 134.671C559.772 130.806 558.233 127.099 555.493 124.366C552.753 121.632 549.037 120.097 545.162 120.097Z"></path>
<path fill="#B6D9FF" d="M175.672 585.828C201.912 559.651 201.912 517.211 175.672 491.034C149.431 464.858 106.887 464.858 80.6462 491.034C54.4056 517.211 54.4056 559.651 80.6462 585.828C106.887 612.004 149.431 612.004 175.672 585.828Z"></path>
<path fill="#B6D9FF" d="M174.096 572.393C174.096 572.393 166.814 605.452 192.827 605.452C192.827 605.452 162.315 618.649 151.29 591.588L174.096 572.393Z"></path>
<path fill="#0073EF" d="M153.874 514.539H102.427C100.083 514.539 97.8339 515.46 96.1664 517.103C94.4989 518.746 93.5474 520.977 93.5181 523.315V553.53C93.5181 555.887 94.4567 558.148 96.1273 559.814C97.798 561.481 100.064 562.417 102.427 562.417H121.291L128.551 578.591L135.233 562.417H153.763C156.125 562.417 158.391 561.481 160.062 559.814C161.733 558.148 162.671 555.887 162.671 553.53V523.315C162.642 520.997 161.706 518.781 160.063 517.142C158.419 515.502 156.198 514.568 153.874 514.539ZM146.391 546.821H109.643C109.028 546.821 108.439 546.577 108.005 546.144C107.57 545.711 107.326 545.123 107.326 544.51C107.326 543.897 107.57 543.31 108.005 542.876C108.439 542.443 109.028 542.2 109.643 542.2H146.391C147.005 542.2 147.594 542.443 148.029 542.876C148.463 543.31 148.707 543.897 148.707 544.51C148.707 545.123 148.463 545.711 148.029 546.144C147.594 546.577 147.005 546.821 146.391 546.821ZM146.391 531.78H109.643C109.338 531.78 109.037 531.72 108.756 531.604C108.475 531.488 108.22 531.318 108.005 531.103C107.79 530.889 107.619 530.634 107.503 530.353C107.386 530.073 107.326 529.773 107.326 529.469C107.326 529.166 107.386 528.865 107.503 528.585C107.619 528.305 107.79 528.05 108.005 527.835C108.22 527.621 108.475 527.451 108.756 527.335C109.037 527.218 109.338 527.159 109.643 527.159H146.391C147.005 527.159 147.594 527.402 148.029 527.835C148.463 528.269 148.707 528.856 148.707 529.469C148.707 530.082 148.463 530.67 148.029 531.103C147.594 531.536 147.005 531.78 146.391 531.78Z"></path>
</svg>
